<svg xmlns="http://www.w3.org/2000/svg" viewBox="0 0 900 600" width="900" height="600" fill="none" role="img" aria-label="Material handling" shape-rendering="geometricPrecision"><defs><linearGradient id="r6steel-t" x1="0" y1="0" x2="0.85" y2="1"><stop offset="0" stop-color="#5a6874"/><stop offset="1" stop-color="#3b4750"/></linearGradient><linearGradient id="r6steel-f" x1="0.1" y1="0" x2="0.9" y2="1"><stop offset="0" stop-color="#313d47"/><stop offset="1" stop-color="#1e262d"/></linearGradient><linearGradient id="r6steel-s" x1="0" y1="0.1" x2="1" y2="0.9"><stop offset="0" stop-color="#161d23"/><stop offset="1" stop-color="#0c1114"/></linearGradient><linearGradient id="r6steelLt-t" x1="0" y1="0" x2="0.85" y2="1"><stop offset="0" stop-color="#71818f"/><stop offset="1" stop-color="#4e5b67"/></linearGradient><linearGradient id="r6steelLt-f" x1="0.1" y1="0" x2="0.9" y2="1"><stop offset="0" stop-color="#3f4c58"/><stop offset="1" stop-color="#28313a"/></linearGradient><linearGradient id="r6steelLt-s" x1="0" y1="0.1" x2="1" y2="0.9"><stop offset="0" stop-color="#1b222a"/><stop offset="1" stop-color="#11161b"/></linearGradient><linearGradient id="r6steelDk-t" x1="0" y1="0" x2="0.85" y2="1"><stop offset="0" stop-color="#3b464f"/><stop offset="1" stop-color="#262f37"/></linearGradient><linearGradient id="r6steelDk-f" x1="0.1" y1="0" x2="0.9" y2="1"><stop offset="0" stop-color="#222a31"/><stop offset="1" stop-color="#141a1f"/></linearGradient><linearGradient id="r6steelDk-s" x1="0" y1="0.1" x2="1" y2="0.9"><stop offset="0" stop-color="#10161a"/><stop offset="1" stop-color="#080b0e"/></linearGradient><linearGradient id="r6orange-t" x1="0" y1="0" x2="0.85" y2="1"><stop offset="0" stop-color="#ffab63"/><stop offset="1" stop-color="#ff7d31"/></linearGradient><linearGradient id="r6orange-f" x1="0.1" y1="0" x2="0.9" y2="1"><stop offset="0" stop-color="#ff6c1e"/><stop offset="1" stop-color="#d64e0b"/></linearGradient><linearGradient id="r6orange-s" x1="0" y1="0.1" x2="1" y2="0.9"><stop offset="0" stop-color="#a63b07"/><stop offset="1" stop-color="#7a2a04"/></linearGradient><linearGradient id="r6orangeHi-t" x1="0" y1="0" x2="0.85" y2="1"><stop offset="0" stop-color="#ffc98f"/><stop offset="1" stop-color="#ff9a4d"/></linearGradient><linearGradient id="r6orangeHi-f" x1="0.1" y1="0" x2="0.9" y2="1"><stop offset="0" stop-color="#ff8a3c"/><stop offset="1" stop-color="#e85c12"/></linearGradient><linearGradient id="r6orangeHi-s" x1="0" y1="0.1" x2="1" y2="0.9"><stop offset="0" stop-color="#b84508"/><stop offset="1" stop-color="#863005"/></linearGradient><linearGradient id="r6wood-t" x1="0" y1="0" x2="0.85" y2="1"><stop offset="0" stop-color="#d6ac72"/><stop offset="1" stop-color="#ac8148"/></linearGradient><linearGradient id="r6wood-f" x1="0.1" y1="0" x2="0.9" y2="1"><stop offset="0" stop-color="#bb8d51"/><stop offset="1" stop-color="#8d6635"/></linearGradient><linearGradient id="r6wood-s" x1="0" y1="0.1" x2="1" y2="0.9"><stop offset="0" stop-color="#7c592d"/><stop offset="1" stop-color="#5b401f"/></linearGradient><linearGradient id="r6carton-t" x1="0" y1="0" x2="0.85" y2="1"><stop offset="0" stop-color="#dcb27d"/><stop offset="1" stop-color="#bb8c5a"/></linearGradient><linearGradient id="r6carton-f" x1="0.1" y1="0" x2="0.9" y2="1"><stop offset="0" stop-color="#c69c65"/><stop offset="1" stop-color="#9a7342"/></linearGradient><linearGradient id="r6carton-s" x1="0" y1="0.1" x2="1" y2="0.9"><stop offset="0" stop-color="#89612f"/><stop offset="1" stop-color="#694825"/></linearGradient><linearGradient id="r6cartonB-t" x1="0" y1="0" x2="0.85" y2="1"><stop offset="0" stop-color="#d3b183"/><stop offset="1" stop-color="#b08a58"/></linearGradient><linearGradient id="r6cartonB-f" x1="0.1" y1="0" x2="0.9" y2="1"><stop offset="0" stop-color="#bd9463"/><stop offset="1" stop-color="#946d3e"/></linearGradient><linearGradient id="r6cartonB-s" x1="0" y1="0.1" x2="1" y2="0.9"><stop offset="0" stop-color="#7f5b2c"/><stop offset="1" stop-color="#5f4320"/></linearGradient><linearGradient id="r6wrap-t" x1="0" y1="0" x2="0.85" y2="1"><stop offset="0" stop-color="#e6eef3"/><stop offset="1" stop-color="#c6d4dd"/></linearGradient><linearGradient id="r6wrap-f" x1="0.1" y1="0" x2="0.9" y2="1"><stop offset="0" stop-color="#cfdce4"/><stop offset="1" stop-color="#a9bcc8"/></linearGradient><linearGradient id="r6wrap-s" x1="0" y1="0.1" x2="1" y2="0.9"><stop offset="0" stop-color="#94a9b7"/><stop offset="1" stop-color="#788d9a"/></linearGradient><linearGradient id="r6dark-t" x1="0" y1="0" x2="0.85" y2="1"><stop offset="0" stop-color="#2c353e"/><stop offset="1" stop-color="#1c242b"/></linearGradient><linearGradient id="r6dark-f" x1="0.1" y1="0" x2="0.9" y2="1"><stop offset="0" stop-color="#1d252c"/><stop offset="1" stop-color="#121920"/></linearGradient><linearGradient id="r6dark-s" x1="0" y1="0.1" x2="1" y2="0.9"><stop offset="0" stop-color="#0f1519"/><stop offset="1" stop-color="#080b0e"/></linearGradient><linearGradient id="r6bin-t" x1="0" y1="0" x2="0.85" y2="1"><stop offset="0" stop-color="#457587"/><stop offset="1" stop-color="#2d5464"/></linearGradient><linearGradient id="r6bin-f" x1="0.1" y1="0" x2="0.9" y2="1"><stop offset="0" stop-color="#345a6b"/><stop offset="1" stop-color="#203d4a"/></linearGradient><linearGradient id="r6bin-s" x1="0" y1="0.1" x2="1" y2="0.9"><stop offset="0" stop-color="#192d36"/><stop offset="1" stop-color="#0f1e25"/></linearGradient><linearGradient id="r6binO-t" x1="0" y1="0" x2="0.85" y2="1"><stop offset="0" stop-color="#c2762c"/><stop offset="1" stop-color="#96551a"/></linearGradient><linearGradient id="r6binO-f" x1="0.1" y1="0" x2="0.9" y2="1"><stop offset="0" stop-color="#a8641f"/><stop offset="1" stop-color="#7c4812"/></linearGradient><linearGradient id="r6binO-s" x1="0" y1="0.1" x2="1" y2="0.9"><stop offset="0" stop-color="#5e3510"/><stop offset="1" stop-color="#42240a"/></linearGradient><linearGradient id="r6rubber-t" x1="0" y1="0" x2="0.85" y2="1"><stop offset="0" stop-color="#2d3237"/><stop offset="1" stop-color="#1d2125"/></linearGradient><linearGradient id="r6rubber-f" x1="0.1" y1="0" x2="0.9" y2="1"><stop offset="0" stop-color="#202428"/><stop offset="1" stop-color="#131619"/></linearGradient><linearGradient id="r6rubber-s" x1="0" y1="0.1" x2="1" y2="0.9"><stop offset="0" stop-color="#0e1013"/><stop offset="1" stop-color="#08090a"/></linearGradient><linearGradient id="r6yellow-t" x1="0" y1="0" x2="0.85" y2="1"><stop offset="0" stop-color="#ffd24a"/><stop offset="1" stop-color="#e8a90c"/></linearGradient><linearGradient id="r6yellow-f" x1="0.1" y1="0" x2="0.9" y2="1"><stop offset="0" stop-color="#f0b91c"/><stop offset="1" stop-color="#c48c07"/></linearGradient><linearGradient id="r6yellow-s" x1="0" y1="0.1" x2="1" y2="0.9"><stop offset="0" stop-color="#946a05"/><stop offset="1" stop-color="#6b4c03"/></linearGradient><linearGradient id="r6concrete-t" x1="0" y1="0" x2="0.85" y2="1"><stop offset="0" stop-color="#1b2730"/><stop offset="1" stop-color="#131c23"/></linearGradient><linearGradient id="r6concrete-f" x1="0.1" y1="0" x2="0.9" y2="1"><stop offset="0" stop-color="#182229"/><stop offset="1" stop-color="#101820"/></linearGradient><linearGradient id="r6concrete-s" x1="0" y1="0.1" x2="1" y2="0.9"><stop offset="0" stop-color="#0f151a"/><stop offset="1" stop-color="#0a0e12"/></linearGradient><filter id="r6b6" x="-60%" y="-60%" width="220%" height="220%"><feGaussianBlur stdDeviation="6"/></filter><filter id="r6b14" x="-60%" y="-60%" width="220%" height="220%"><feGaussianBlur stdDeviation="14"/></filter><filter id="r6b30" x="-70%" y="-70%" width="240%" height="240%"><feGaussianBlur stdDeviation="30"/></filter><filter id="r6b3" x="-60%" y="-60%" width="220%" height="220%"><feGaussianBlur stdDeviation="3"/></filter></defs><linearGradient id="r6floorG" x1="0" y1="0" x2="0" y2="1"><stop offset="0" stop-color="#0a1016" stop-opacity="0"/><stop offset="0.45" stop-color="#16212a" stop-opacity="0.75"/><stop offset="1" stop-color="#1d2a34" stop-opacity="0.9"/></linearGradient><radialGradient id="r6floorPool" cx="0.5" cy="0.5" r="0.5"><stop offset="0" stop-color="#ff6b1a" stop-opacity="0.5"/><stop offset="1" stop-color="#ff6b1a" stop-opacity="0"/></radialGradient><radialGradient id="r6shadowPool" cx="0.5" cy="0.5" r="0.5"><stop offset="0" stop-color="#000000" stop-opacity="0.62"/><stop offset="0.6" stop-color="#000000" stop-opacity="0.28"/><stop offset="1" stop-color="#000000" stop-opacity="0"/></radialGradient><linearGradient id="r6floorG" x1="0" y1="0" x2="0" y2="1"><stop offset="0" stop-color="#0a1016" stop-opacity="0"/><stop offset="0.45" stop-color="#16212a" stop-opacity="0.75"/><stop offset="1" stop-color="#1d2a34" stop-opacity="0.9"/></linearGradient><radialGradient id="r6floorPool" cx="0.5" cy="0.5" r="0.5"><stop offset="0" stop-color="#ff6b1a" stop-opacity="0.5"/><stop offset="1" stop-color="#ff6b1a" stop-opacity="0"/></radialGradient><radialGradient id="r6shadowPool" cx="0.5" cy="0.5" r="0.5"><stop offset="0" stop-color="#000000" stop-opacity="0.62"/><stop offset="0.6" stop-color="#000000" stop-opacity="0.28"/><stop offset="1" stop-color="#000000" stop-opacity="0"/></radialGradient><g filter="url(#r6b14)" opacity="0.3"><polygon points="171.17,-82.24 397.97,-36.88 403.61,-40.77 176.81,-86.13" fill="#cfe6f2"/></g><ellipse cx="287.7" cy="348.68" rx="192.78" ry="54.43" fill="#9fc4d8" opacity="0.07" filter="url(#r6b30)"/><g filter="url(#r6b14)" opacity="0.3"><polygon points="559.97,-4.48 786.77,40.88 792.41,36.99 565.61,-8.37" fill="#cfe6f2"/></g><ellipse cx="676.5" cy="426.44" rx="192.78" ry="54.43" fill="#9fc4d8" opacity="0.07" filter="url(#r6b30)"/><polygon points="-2338.32,617.6 7381.68,2561.6 10137.84,660.8 417.84,-1283.2" fill="url(#r6floorG)"/><path d="M-2338.32,617.6 L417.84,-1283.2 M-1366.32,812 L1389.84,-1088.8 M-394.32,1006.4 L2361.84,-894.4 M577.68,1200.8 L3333.84,-700 M1549.68,1395.2 L4305.84,-505.6 M2521.68,1589.6 L5277.84,-311.2 M3493.68,1784 L6249.84,-116.8 M4465.68,1978.4 L7221.84,77.6 M5437.68,2172.8 L8193.84,272 M6409.68,2367.2 L9165.84,466.4 M7381.68,2561.6 L10137.84,660.8 M-2338.32,617.6 L7381.68,2561.6 M-1993.8,380 L7726.2,2324 M-1649.28,142.4 L8070.72,2086.4 M-1304.76,-95.2 L8415.24,1848.8 M-960.24,-332.8 L8759.76,1611.2 M-615.72,-570.4 L9104.28,1373.6 M-271.2,-808 L9448.8,1136 M73.32,-1045.6 L9793.32,898.4 M417.84,-1283.2 L10137.84,660.8" stroke="#5f7683" stroke-width="0.7" opacity="0.1" fill="none"/><ellipse cx="466.66" cy="431.84" rx="1296" ry="388.8" fill="url(#r6floorPool)" opacity="0.5"/><ellipse cx="466.66" cy="431.84" rx="540" ry="140.4" fill="url(#r6shadowPool)"/><polygon points="-2338.32,617.6 7381.68,2561.6 10137.84,660.8 417.84,-1283.2" fill="url(#r6floorG)"/><path d="M-2338.32,617.6 L417.84,-1283.2 M-1366.32,812 L1389.84,-1088.8 M-394.32,1006.4 L2361.84,-894.4 M577.68,1200.8 L3333.84,-700 M1549.68,1395.2 L4305.84,-505.6 M2521.68,1589.6 L5277.84,-311.2 M3493.68,1784 L6249.84,-116.8 M4465.68,1978.4 L7221.84,77.6 M5437.68,2172.8 L8193.84,272 M6409.68,2367.2 L9165.84,466.4 M7381.68,2561.6 L10137.84,660.8 M-2338.32,617.6 L7381.68,2561.6 M-1993.8,380 L7726.2,2324 M-1649.28,142.4 L8070.72,2086.4 M-1304.76,-95.2 L8415.24,1848.8 M-960.24,-332.8 L8759.76,1611.2 M-615.72,-570.4 L9104.28,1373.6 M-271.2,-808 L9448.8,1136 M73.32,-1045.6 L9793.32,898.4 M417.84,-1283.2 L10137.84,660.8" stroke="#5f7683" stroke-width="0.7" opacity="0.1" fill="none"/><ellipse cx="332.71" cy="411.32" rx="481.14" ry="144.34" fill="url(#r6floorPool)" opacity="0.5"/><ellipse cx="332.71" cy="411.32" rx="271.19" ry="70.51" fill="url(#r6shadowPool)"/><polygon points="123.43,351.6 146.65,356.24 155.11,350.41 131.89,345.76" fill="url(#r6steelDk-t)"/><polygon points="123.43,354.84 146.65,359.48 146.65,356.24 123.43,351.6" fill="url(#r6steelDk-f)"/><polygon points="146.65,359.48 155.11,353.65 155.11,350.41 146.65,356.24" fill="url(#r6steelDk-s)"/><polygon points="127.24,347.71 129.94,348.25 131.51,347.17 128.81,346.63" fill="url(#r6steelDk-t)"/><polygon points="127.24,350.41 129.94,350.95 129.94,348.25 127.24,347.71" fill="url(#r6steelDk-f)"/><polygon points="129.94,350.95 131.51,349.87 131.51,347.17 129.94,348.25" fill="url(#r6steelDk-s)"/><polygon points="141.28,350.52 143.98,351.06 145.55,349.98 142.85,349.44" fill="url(#r6steelDk-t)"/><polygon points="141.28,353.22 143.98,353.76 143.98,351.06 141.28,350.52" fill="url(#r6steelDk-f)"/><polygon points="143.98,353.76 145.55,352.68 145.55,349.98 143.98,351.06" fill="url(#r6steelDk-s)"/><polygon points="132.02,128.36 141.2,130.2 146.52,126.52 137.34,124.69" fill="url(#r6steel-t)"/><polygon points="132.02,351.92 141.2,353.76 141.2,130.2 132.02,128.36" fill="url(#r6steel-f)"/><polygon points="141.2,353.76 146.52,350.08 146.52,126.52 141.2,130.2" fill="url(#r6steel-s)"/><path d="M132.02,128.36 L141.2,130.2 L146.52,126.52" fill="none" stroke="#93a7b5" stroke-width="1.1" stroke-linejoin="round" opacity="0.4"/><polygon points="134.46,337.4 138.5,338.21 138.5,331.19 134.46,330.38 134.46,319.04 138.5,319.85 138.5,312.83 134.46,312.02 134.46,300.68 138.5,301.49 138.5,294.47 134.46,293.66 134.46,282.32 138.5,283.13 138.5,276.11 134.46,275.3 134.46,263.96 138.5,264.77 138.5,257.75 134.46,256.94 134.46,245.6 138.5,246.41 138.5,239.39 134.46,238.58 134.46,227.24 138.5,228.05 138.5,221.03 134.46,220.22 134.46,208.88 138.5,209.69 138.5,202.67 134.46,201.86 134.46,190.52 138.5,191.33 138.5,184.31 134.46,183.5 134.46,172.16 138.5,172.97 138.5,165.95 134.46,165.14" fill="#05080a" opacity="0.55"/><polygon points="96.66,360.68 131.43,244.9 131.36,244.88 96.59,360.66" fill="url(#r6steelDk-s)"/><path d="M96.66,360.68 L131.43,244.9" fill="none" stroke="#7d8f9c" stroke-width="0.8" opacity="0.25"/><polygon points="96.59,268.89 131.36,336.71 131.42,336.67 96.66,268.85" fill="url(#r6steelDk-s)"/><path d="M96.59,268.89 L131.36,336.71" fill="none" stroke="#7d8f9c" stroke-width="0.8" opacity="0.2"/><polygon points="96.66,268.88 131.43,153.1 131.36,153.08 96.59,268.86" fill="url(#r6steelDk-s)"/><path d="M96.66,268.88 L131.43,153.1" fill="none" stroke="#7d8f9c" stroke-width="0.8" opacity="0.25"/><polygon points="96.59,177.09 131.36,244.91 131.42,244.87 96.66,177.05" fill="url(#r6steelDk-s)"/><path d="M96.59,177.09 L131.36,244.91" fill="none" stroke="#7d8f9c" stroke-width="0.8" opacity="0.2"/><polygon points="269.23,380.76 292.45,385.4 300.91,379.57 277.69,374.92" fill="url(#r6steelDk-t)"/><polygon points="269.23,384 292.45,388.64 292.45,385.4 269.23,380.76" fill="url(#r6steelDk-f)"/><polygon points="292.45,388.64 300.91,382.81 300.91,379.57 292.45,385.4" fill="url(#r6steelDk-s)"/><polygon points="273.04,376.87 275.74,377.41 277.31,376.33 274.61,375.79" fill="url(#r6steelDk-t)"/><polygon points="273.04,379.57 275.74,380.11 275.74,377.41 273.04,376.87" fill="url(#r6steelDk-f)"/><polygon points="275.74,380.11 277.31,379.03 277.31,376.33 275.74,377.41" fill="url(#r6steelDk-s)"/><polygon points="287.08,379.68 289.78,380.22 291.35,379.14 288.65,378.6" fill="url(#r6steelDk-t)"/><polygon points="287.08,382.38 289.78,382.92 289.78,380.22 287.08,379.68" fill="url(#r6steelDk-f)"/><polygon points="289.78,382.92 291.35,381.84 291.35,379.14 289.78,380.22" fill="url(#r6steelDk-s)"/><polygon points="277.82,157.52 287,159.36 292.32,155.68 283.14,153.85" fill="url(#r6steel-t)"/><polygon points="277.82,381.08 287,382.92 287,159.36 277.82,157.52" fill="url(#r6steel-f)"/><polygon points="287,382.92 292.32,379.24 292.32,155.68 287,159.36" fill="url(#r6steel-s)"/><path d="M277.82,157.52 L287,159.36 L292.32,155.68" fill="none" stroke="#93a7b5" stroke-width="1.1" stroke-linejoin="round" opacity="0.4"/><polygon points="280.26,366.56 284.3,367.37 284.3,360.35 280.26,359.54 280.26,348.2 284.3,349.01 284.3,341.99 280.26,341.18 280.26,329.84 284.3,330.65 284.3,323.63 280.26,322.82 280.26,311.48 284.3,312.29 284.3,305.27 280.26,304.46 280.26,293.12 284.3,293.93 284.3,286.91 280.26,286.1 280.26,274.76 284.3,275.57 284.3,268.55 280.26,267.74 280.26,256.4 284.3,257.21 284.3,250.19 280.26,249.38 280.26,238.04 284.3,238.85 284.3,231.83 280.26,231.02 280.26,219.68 284.3,220.49 284.3,213.47 280.26,212.66 280.26,201.32 284.3,202.13 284.3,195.11 280.26,194.3" fill="#05080a" opacity="0.55"/><polygon points="242.46,389.84 277.23,274.06 277.16,274.04 242.39,389.82" fill="url(#r6steelDk-s)"/><path d="M242.46,389.84 L277.23,274.06" fill="none" stroke="#7d8f9c" stroke-width="0.8" opacity="0.25"/><polygon points="242.39,298.05 277.16,365.87 277.22,365.83 242.46,298.01" fill="url(#r6steelDk-s)"/><path d="M242.39,298.05 L277.16,365.87" fill="none" stroke="#7d8f9c" stroke-width="0.8" opacity="0.2"/><polygon points="242.46,298.04 277.23,182.26 277.16,182.24 242.39,298.02" fill="url(#r6steelDk-s)"/><path d="M242.46,298.04 L277.23,182.26" fill="none" stroke="#7d8f9c" stroke-width="0.8" opacity="0.25"/><polygon points="242.39,206.25 277.16,274.07 277.22,274.03 242.46,206.21" fill="url(#r6steelDk-s)"/><path d="M242.39,206.25 L277.16,274.07" fill="none" stroke="#7d8f9c" stroke-width="0.8" opacity="0.2"/><polygon points="415.03,409.92 438.25,414.56 446.71,408.73 423.49,404.08" fill="url(#r6steelDk-t)"/><polygon points="415.03,413.16 438.25,417.8 438.25,414.56 415.03,409.92" fill="url(#r6steelDk-f)"/><polygon points="438.25,417.8 446.71,411.97 446.71,408.73 438.25,414.56" fill="url(#r6steelDk-s)"/><polygon points="418.84,406.03 421.54,406.57 423.11,405.49 420.41,404.95" fill="url(#r6steelDk-t)"/><polygon points="418.84,408.73 421.54,409.27 421.54,406.57 418.84,406.03" fill="url(#r6steelDk-f)"/><polygon points="421.54,409.27 423.11,408.19 423.11,405.49 421.54,406.57" fill="url(#r6steelDk-s)"/><polygon points="432.88,408.84 435.58,409.38 437.15,408.3 434.45,407.76" fill="url(#r6steelDk-t)"/><polygon points="432.88,411.54 435.58,412.08 435.58,409.38 432.88,408.84" fill="url(#r6steelDk-f)"/><polygon points="435.58,412.08 437.15,411 437.15,408.3 435.58,409.38" fill="url(#r6steelDk-s)"/><polygon points="423.62,186.68 432.8,188.52 438.12,184.84 428.94,183.01" fill="url(#r6steel-t)"/><polygon points="423.62,410.24 432.8,412.08 432.8,188.52 423.62,186.68" fill="url(#r6steel-f)"/><polygon points="432.8,412.08 438.12,408.4 438.12,184.84 432.8,188.52" fill="url(#r6steel-s)"/><path d="M423.62,186.68 L432.8,188.52 L438.12,184.84" fill="none" stroke="#93a7b5" stroke-width="1.1" stroke-linejoin="round" opacity="0.4"/><polygon points="426.06,395.72 430.1,396.53 430.1,389.51 426.06,388.7 426.06,377.36 430.1,378.17 430.1,371.15 426.06,370.34 426.06,359 430.1,359.81 430.1,352.79 426.06,351.98 426.06,340.64 430.1,341.45 430.1,334.43 426.06,333.62 426.06,322.28 430.1,323.09 430.1,316.07 426.06,315.26 426.06,303.92 430.1,304.73 430.1,297.71 426.06,296.9 426.06,285.56 430.1,286.37 430.1,279.35 426.06,278.54 426.06,267.2 430.1,268.01 430.1,260.99 426.06,260.18 426.06,248.84 430.1,249.65 430.1,242.63 426.06,241.82 426.06,230.48 430.1,231.29 430.1,224.27 426.06,223.46" fill="#05080a" opacity="0.55"/><polygon points="388.26,419 423.03,303.22 422.96,303.2 388.19,418.98" fill="url(#r6steelDk-s)"/><path d="M388.26,419 L423.03,303.22" fill="none" stroke="#7d8f9c" stroke-width="0.8" opacity="0.25"/><polygon points="388.19,327.21 422.96,395.03 423.02,394.99 388.26,327.17" fill="url(#r6steelDk-s)"/><path d="M388.19,327.21 L422.96,395.03" fill="none" stroke="#7d8f9c" stroke-width="0.8" opacity="0.2"/><polygon points="388.26,327.2 423.03,211.42 422.96,211.4 388.19,327.18" fill="url(#r6steelDk-s)"/><path d="M388.26,327.2 L423.03,211.42" fill="none" stroke="#7d8f9c" stroke-width="0.8" opacity="0.25"/><polygon points="388.19,235.41 422.96,303.23 423.02,303.19 388.26,235.37" fill="url(#r6steelDk-s)"/><path d="M388.19,235.41 L422.96,303.23" fill="none" stroke="#7d8f9c" stroke-width="0.8" opacity="0.2"/><polygon points="560.83,439.08 584.05,443.72 592.51,437.89 569.29,433.24" fill="url(#r6steelDk-t)"/><polygon points="560.83,442.32 584.05,446.96 584.05,443.72 560.83,439.08" fill="url(#r6steelDk-f)"/><polygon points="584.05,446.96 592.51,441.13 592.51,437.89 584.05,443.72" fill="url(#r6steelDk-s)"/><polygon points="564.64,435.19 567.34,435.73 568.91,434.65 566.21,434.11" fill="url(#r6steelDk-t)"/><polygon points="564.64,437.89 567.34,438.43 567.34,435.73 564.64,435.19" fill="url(#r6steelDk-f)"/><polygon points="567.34,438.43 568.91,437.35 568.91,434.65 567.34,435.73" fill="url(#r6steelDk-s)"/><polygon points="578.68,438 581.38,438.54 582.95,437.46 580.25,436.92" fill="url(#r6steelDk-t)"/><polygon points="578.68,440.7 581.38,441.24 581.38,438.54 578.68,438" fill="url(#r6steelDk-f)"/><polygon points="581.38,441.24 582.95,440.16 582.95,437.46 581.38,438.54" fill="url(#r6steelDk-s)"/><polygon points="569.42,215.84 578.6,217.68 583.92,214 574.74,212.17" fill="url(#r6steel-t)"/><polygon points="569.42,439.4 578.6,441.24 578.6,217.68 569.42,215.84" fill="url(#r6steel-f)"/><polygon points="578.6,441.24 583.92,437.56 583.92,214 578.6,217.68" fill="url(#r6steel-s)"/><path d="M569.42,215.84 L578.6,217.68 L583.92,214" fill="none" stroke="#93a7b5" stroke-width="1.1" stroke-linejoin="round" opacity="0.4"/><polygon points="571.86,424.88 575.9,425.69 575.9,418.67 571.86,417.86 571.86,406.52 575.9,407.33 575.9,400.31 571.86,399.5 571.86,388.16 575.9,388.97 575.9,381.95 571.86,381.14 571.86,369.8 575.9,370.61 575.9,363.59 571.86,362.78 571.86,351.44 575.9,352.25 575.9,345.23 571.86,344.42 571.86,333.08 575.9,333.89 575.9,326.87 571.86,326.06 571.86,314.72 575.9,315.53 575.9,308.51 571.86,307.7 571.86,296.36 575.9,297.17 575.9,290.15 571.86,289.34 571.86,278 575.9,278.81 575.9,271.79 571.86,270.98 571.86,259.64 575.9,260.45 575.9,253.43 571.86,252.62" fill="#05080a" opacity="0.55"/><polygon points="534.06,448.16 568.83,332.38 568.76,332.36 533.99,448.14" fill="url(#r6steelDk-s)"/><path d="M534.06,448.16 L568.83,332.38" fill="none" stroke="#7d8f9c" stroke-width="0.8" opacity="0.25"/><polygon points="533.99,356.37 568.76,424.19 568.82,424.15 534.06,356.33" fill="url(#r6steelDk-s)"/><path d="M533.99,356.37 L568.76,424.19" fill="none" stroke="#7d8f9c" stroke-width="0.8" opacity="0.2"/><polygon points="534.06,356.36 568.83,240.58 568.76,240.56 533.99,356.34" fill="url(#r6steelDk-s)"/><path d="M534.06,356.36 L568.83,240.58" fill="none" stroke="#7d8f9c" stroke-width="0.8" opacity="0.25"/><polygon points="533.99,264.57 568.76,332.39 568.82,332.35 534.06,264.53" fill="url(#r6steelDk-s)"/><path d="M533.99,264.57 L568.76,332.39" fill="none" stroke="#7d8f9c" stroke-width="0.8" opacity="0.2"/><polygon points="95.84,363.37 533.24,450.85 536.38,448.69 98.98,361.21" fill="url(#r6orange-t)"/><polygon points="95.84,371.47 533.24,458.95 533.24,450.85 95.84,363.37" fill="url(#r6orange-f)"/><polygon points="533.24,458.95 536.38,456.79 536.38,448.69 533.24,450.85" fill="url(#r6orange-s)"/><path d="M95.84,363.37 L533.24,450.85 L536.38,448.69" fill="none" stroke="#ffd9b0" stroke-width="1.1" stroke-linejoin="round" opacity="0.5"/><path d="M95.53,372.22 L532.93,459.7" stroke="#ff6b1a" stroke-width="4" opacity="0.3" filter="url(#r6b6)" fill="none"/><polygon points="129.04,340.47 566.44,427.95 569.57,425.79 132.17,338.31" fill="url(#r6orange-t)"/><polygon points="129.04,348.57 566.44,436.05 566.44,427.95 129.04,340.47" fill="url(#r6orange-f)"/><polygon points="566.44,436.05 569.57,433.89 569.57,425.79 566.44,427.95" fill="url(#r6orange-s)"/><path d="M129.04,340.47 L566.44,427.95 L569.57,425.79" fill="none" stroke="#ffd9b0" stroke-width="1.1" stroke-linejoin="round" opacity="0.5"/><path d="M128.73,349.33 L566.13,436.81" stroke="#ff6b1a" stroke-width="4" opacity="0.3" filter="url(#r6b6)" fill="none"/><polygon points="95.84,286.69 533.24,374.17 536.38,372.01 98.98,284.53" fill="url(#r6orange-t)"/><polygon points="95.84,294.79 533.24,382.27 533.24,374.17 95.84,286.69" fill="url(#r6orange-f)"/><polygon points="533.24,382.27 536.38,380.11 536.38,372.01 533.24,374.17" fill="url(#r6orange-s)"/><path d="M95.84,286.69 L533.24,374.17 L536.38,372.01" fill="none" stroke="#ffd9b0" stroke-width="1.1" stroke-linejoin="round" opacity="0.5"/><path d="M95.53,295.54 L532.93,383.02" stroke="#ff6b1a" stroke-width="4" opacity="0.3" filter="url(#r6b6)" fill="none"/><polygon points="129.04,263.79 566.44,351.27 569.57,349.11 132.17,261.63" fill="url(#r6orange-t)"/><polygon points="129.04,271.89 566.44,359.37 566.44,351.27 129.04,263.79" fill="url(#r6orange-f)"/><polygon points="566.44,359.37 569.57,357.21 569.57,349.11 566.44,351.27" fill="url(#r6orange-s)"/><path d="M129.04,263.79 L566.44,351.27 L569.57,349.11" fill="none" stroke="#ffd9b0" stroke-width="1.1" stroke-linejoin="round" opacity="0.5"/><path d="M128.73,272.65 L566.13,360.13" stroke="#ff6b1a" stroke-width="4" opacity="0.3" filter="url(#r6b6)" fill="none"/><polygon points="95.84,210.01 533.24,297.49 536.38,295.33 98.98,207.85" fill="url(#r6orange-t)"/><polygon points="95.84,218.11 533.24,305.59 533.24,297.49 95.84,210.01" fill="url(#r6orange-f)"/><polygon points="533.24,305.59 536.38,303.43 536.38,295.33 533.24,297.49" fill="url(#r6orange-s)"/><path d="M95.84,210.01 L533.24,297.49 L536.38,295.33" fill="none" stroke="#ffd9b0" stroke-width="1.1" stroke-linejoin="round" opacity="0.5"/><path d="M95.53,218.86 L532.93,306.34" stroke="#ff6b1a" stroke-width="4" opacity="0.3" filter="url(#r6b6)" fill="none"/><polygon points="129.04,187.11 566.44,274.59 569.57,272.43 132.17,184.95" fill="url(#r6orange-t)"/><polygon points="129.04,195.21 566.44,282.69 566.44,274.59 129.04,187.11" fill="url(#r6orange-f)"/><polygon points="566.44,282.69 569.57,280.53 569.57,272.43 566.44,274.59" fill="url(#r6orange-s)"/><path d="M129.04,187.11 L566.44,274.59 L569.57,272.43" fill="none" stroke="#ffd9b0" stroke-width="1.1" stroke-linejoin="round" opacity="0.5"/><path d="M128.73,195.97 L566.13,283.45" stroke="#ff6b1a" stroke-width="4" opacity="0.3" filter="url(#r6b6)" fill="none"/><polygon points="95.84,150.61 533.24,238.09 536.38,235.93 98.98,148.45" fill="url(#r6orange-t)"/><polygon points="95.84,158.71 533.24,246.19 533.24,238.09 95.84,150.61" fill="url(#r6orange-f)"/><polygon points="533.24,246.19 536.38,244.03 536.38,235.93 533.24,238.09" fill="url(#r6orange-s)"/><path d="M95.84,150.61 L533.24,238.09 L536.38,235.93" fill="none" stroke="#ffd9b0" stroke-width="1.1" stroke-linejoin="round" opacity="0.5"/><path d="M95.53,159.46 L532.93,246.94" stroke="#ff6b1a" stroke-width="4" opacity="0.3" filter="url(#r6b6)" fill="none"/><polygon points="129.04,127.71 566.44,215.19 569.57,213.03 132.17,125.55" fill="url(#r6orange-t)"/><polygon points="129.04,135.81 566.44,223.29 566.44,215.19 129.04,127.71" fill="url(#r6orange-f)"/><polygon points="566.44,223.29 569.57,221.13 569.57,213.03 566.44,215.19" fill="url(#r6orange-s)"/><path d="M129.04,127.71 L566.44,215.19 L569.57,213.03" fill="none" stroke="#ffd9b0" stroke-width="1.1" stroke-linejoin="round" opacity="0.5"/><path d="M128.73,136.57 L566.13,224.05" stroke="#ff6b1a" stroke-width="4" opacity="0.3" filter="url(#r6b6)" fill="none"/><polygon points="95.73,364.29 157.83,376.71 160.65,374.76 98.55,362.34" fill="url(#r6orange-t)"/><polygon points="95.73,371.31 157.83,383.73 157.83,376.71 95.73,364.29" fill="url(#r6orange-f)"/><polygon points="157.83,383.73 160.65,381.78 160.65,374.76 157.83,376.71" fill="url(#r6orange-s)"/><path d="M95.73,364.29 L157.83,376.71 L160.65,374.76" fill="none" stroke="#ffc48f" stroke-width="1.1" stroke-linejoin="round" opacity="0.5"/><polygon points="95.73,287.61 157.83,300.03 160.65,298.08 98.55,285.66" fill="url(#r6orange-t)"/><polygon points="95.73,294.63 157.83,307.05 157.83,300.03 95.73,287.61" fill="url(#r6orange-f)"/><polygon points="157.83,307.05 160.65,305.1 160.65,298.08 157.83,300.03" fill="url(#r6orange-s)"/><path d="M95.73,287.61 L157.83,300.03 L160.65,298.08" fill="none" stroke="#ffc48f" stroke-width="1.1" stroke-linejoin="round" opacity="0.5"/><polygon points="95.73,210.93 157.83,223.35 160.65,221.4 98.55,208.98" fill="url(#r6orange-t)"/><polygon points="95.73,217.95 157.83,230.37 157.83,223.35 95.73,210.93" fill="url(#r6orange-f)"/><polygon points="157.83,230.37 160.65,228.42 160.65,221.4 157.83,223.35" fill="url(#r6orange-s)"/><path d="M95.73,210.93 L157.83,223.35 L160.65,221.4" fill="none" stroke="#ffc48f" stroke-width="1.1" stroke-linejoin="round" opacity="0.5"/><polygon points="95.73,151.53 157.83,163.95 160.65,162 98.55,149.58" fill="url(#r6orange-t)"/><polygon points="95.73,158.55 157.83,170.97 157.83,163.95 95.73,151.53" fill="url(#r6orange-f)"/><polygon points="157.83,170.97 160.65,169.02 160.65,162 157.83,163.95" fill="url(#r6orange-s)"/><path d="M95.73,151.53 L157.83,163.95 L160.65,162" fill="none" stroke="#ffc48f" stroke-width="1.1" stroke-linejoin="round" opacity="0.5"/><polygon points="241.53,393.45 303.63,405.87 306.45,403.92 244.35,391.5" fill="url(#r6orange-t)"/><polygon points="241.53,400.47 303.63,412.89 303.63,405.87 241.53,393.45" fill="url(#r6orange-f)"/><polygon points="303.63,412.89 306.45,410.94 306.45,403.92 303.63,405.87" fill="url(#r6orange-s)"/><path d="M241.53,393.45 L303.63,405.87 L306.45,403.92" fill="none" stroke="#ffc48f" stroke-width="1.1" stroke-linejoin="round" opacity="0.5"/><polygon points="241.53,316.77 303.63,329.19 306.45,327.24 244.35,314.82" fill="url(#r6orange-t)"/><polygon points="241.53,323.79 303.63,336.21 303.63,329.19 241.53,316.77" fill="url(#r6orange-f)"/><polygon points="303.63,336.21 306.45,334.26 306.45,327.24 303.63,329.19" fill="url(#r6orange-s)"/><path d="M241.53,316.77 L303.63,329.19 L306.45,327.24" fill="none" stroke="#ffc48f" stroke-width="1.1" stroke-linejoin="round" opacity="0.5"/><polygon points="241.53,240.09 303.63,252.51 306.45,250.56 244.35,238.14" fill="url(#r6orange-t)"/><polygon points="241.53,247.11 303.63,259.53 303.63,252.51 241.53,240.09" fill="url(#r6orange-f)"/><polygon points="303.63,259.53 306.45,257.58 306.45,250.56 303.63,252.51" fill="url(#r6orange-s)"/><path d="M241.53,240.09 L303.63,252.51 L306.45,250.56" fill="none" stroke="#ffc48f" stroke-width="1.1" stroke-linejoin="round" opacity="0.5"/><polygon points="241.53,180.69 303.63,193.11 306.45,191.16 244.35,178.74" fill="url(#r6orange-t)"/><polygon points="241.53,187.71 303.63,200.13 303.63,193.11 241.53,180.69" fill="url(#r6orange-f)"/><polygon points="303.63,200.13 306.45,198.18 306.45,191.16 303.63,193.11" fill="url(#r6orange-s)"/><path d="M241.53,180.69 L303.63,193.11 L306.45,191.16" fill="none" stroke="#ffc48f" stroke-width="1.1" stroke-linejoin="round" opacity="0.5"/><polygon points="387.33,422.61 449.43,435.03 452.25,433.08 390.15,420.66" fill="url(#r6orange-t)"/><polygon points="387.33,429.63 449.43,442.05 449.43,435.03 387.33,422.61" fill="url(#r6orange-f)"/><polygon points="449.43,442.05 452.25,440.1 452.25,433.08 449.43,435.03" fill="url(#r6orange-s)"/><path d="M387.33,422.61 L449.43,435.03 L452.25,433.08" fill="none" stroke="#ffc48f" stroke-width="1.1" stroke-linejoin="round" opacity="0.5"/><polygon points="387.33,345.93 449.43,358.35 452.25,356.4 390.15,343.98" fill="url(#r6orange-t)"/><polygon points="387.33,352.95 449.43,365.37 449.43,358.35 387.33,345.93" fill="url(#r6orange-f)"/><polygon points="449.43,365.37 452.25,363.42 452.25,356.4 449.43,358.35" fill="url(#r6orange-s)"/><path d="M387.33,345.93 L449.43,358.35 L452.25,356.4" fill="none" stroke="#ffc48f" stroke-width="1.1" stroke-linejoin="round" opacity="0.5"/><polygon points="387.33,269.25 449.43,281.67 452.25,279.72 390.15,267.3" fill="url(#r6orange-t)"/><polygon points="387.33,276.27 449.43,288.69 449.43,281.67 387.33,269.25" fill="url(#r6orange-f)"/><polygon points="449.43,288.69 452.25,286.74 452.25,279.72 449.43,281.67" fill="url(#r6orange-s)"/><path d="M387.33,269.25 L449.43,281.67 L452.25,279.72" fill="none" stroke="#ffc48f" stroke-width="1.1" stroke-linejoin="round" opacity="0.5"/><polygon points="387.33,209.85 449.43,222.27 452.25,220.32 390.15,207.9" fill="url(#r6orange-t)"/><polygon points="387.33,216.87 449.43,229.29 449.43,222.27 387.33,209.85" fill="url(#r6orange-f)"/><polygon points="449.43,229.29 452.25,227.34 452.25,220.32 449.43,222.27" fill="url(#r6orange-s)"/><path d="M387.33,209.85 L449.43,222.27 L452.25,220.32" fill="none" stroke="#ffc48f" stroke-width="1.1" stroke-linejoin="round" opacity="0.5"/><polygon points="533.13,451.77 595.23,464.19 598.05,462.24 535.95,449.82" fill="url(#r6orange-t)"/><polygon points="533.13,458.79 595.23,471.21 595.23,464.19 533.13,451.77" fill="url(#r6orange-f)"/><polygon points="595.23,471.21 598.05,469.26 598.05,462.24 595.23,464.19" fill="url(#r6orange-s)"/><path d="M533.13,451.77 L595.23,464.19 L598.05,462.24" fill="none" stroke="#ffc48f" stroke-width="1.1" stroke-linejoin="round" opacity="0.5"/><polygon points="533.13,375.09 595.23,387.51 598.05,385.56 535.95,373.14" fill="url(#r6orange-t)"/><polygon points="533.13,382.11 595.23,394.53 595.23,387.51 533.13,375.09" fill="url(#r6orange-f)"/><polygon points="595.23,394.53 598.05,392.58 598.05,385.56 595.23,387.51" fill="url(#r6orange-s)"/><path d="M533.13,375.09 L595.23,387.51 L598.05,385.56" fill="none" stroke="#ffc48f" stroke-width="1.1" stroke-linejoin="round" opacity="0.5"/><polygon points="533.13,298.41 595.23,310.83 598.05,308.88 535.95,296.46" fill="url(#r6orange-t)"/><polygon points="533.13,305.43 595.23,317.85 595.23,310.83 533.13,298.41" fill="url(#r6orange-f)"/><polygon points="595.23,317.85 598.05,315.9 598.05,308.88 595.23,310.83" fill="url(#r6orange-s)"/><path d="M533.13,298.41 L595.23,310.83 L598.05,308.88" fill="none" stroke="#ffc48f" stroke-width="1.1" stroke-linejoin="round" opacity="0.5"/><polygon points="533.13,239.01 595.23,251.43 598.05,249.48 535.95,237.06" fill="url(#r6orange-t)"/><polygon points="533.13,246.03 595.23,258.45 595.23,251.43 533.13,239.01" fill="url(#r6orange-f)"/><polygon points="595.23,258.45 598.05,256.5 598.05,249.48 595.23,251.43" fill="url(#r6orange-s)"/><path d="M533.13,239.01 L595.23,251.43 L598.05,249.48" fill="none" stroke="#ffc48f" stroke-width="1.1" stroke-linejoin="round" opacity="0.5"/><polygon points="93.48,362.23 106.44,364.83 110.83,361.8 97.87,359.21" fill="url(#r6steelLt-t)"/><polygon points="93.48,372.49 106.44,375.09 106.44,364.83 93.48,362.23" fill="url(#r6steelLt-f)"/><polygon points="106.44,375.09 110.83,372.06 110.83,361.8 106.44,364.83" fill="url(#r6steelLt-s)"/><path d="M93.48,362.23 L106.44,364.83 L110.83,361.8" fill="none" stroke="#c3d2dc" stroke-width="1.1" stroke-linejoin="round" opacity="0.4"/><polygon points="125.12,340.42 138.08,343.01 142.46,339.99 129.5,337.39" fill="url(#r6steelLt-t)"/><polygon points="125.12,350.68 138.08,353.27 138.08,343.01 125.12,340.42" fill="url(#r6steelLt-f)"/><polygon points="138.08,353.27 142.46,350.25 142.46,339.99 138.08,343.01" fill="url(#r6steelLt-s)"/><path d="M125.12,340.42 L138.08,343.01 L142.46,339.99" fill="none" stroke="#c3d2dc" stroke-width="1.1" stroke-linejoin="round" opacity="0.4"/><polygon points="93.48,285.55 106.44,288.15 110.83,285.12 97.87,282.53" fill="url(#r6steelLt-t)"/><polygon points="93.48,295.81 106.44,298.41 106.44,288.15 93.48,285.55" fill="url(#r6steelLt-f)"/><polygon points="106.44,298.41 110.83,295.38 110.83,285.12 106.44,288.15" fill="url(#r6steelLt-s)"/><path d="M93.48,285.55 L106.44,288.15 L110.83,285.12" fill="none" stroke="#c3d2dc" stroke-width="1.1" stroke-linejoin="round" opacity="0.4"/><polygon points="125.12,263.74 138.08,266.33 142.46,263.31 129.5,260.71" fill="url(#r6steelLt-t)"/><polygon points="125.12,274 138.08,276.59 138.08,266.33 125.12,263.74" fill="url(#r6steelLt-f)"/><polygon points="138.08,276.59 142.46,273.57 142.46,263.31 138.08,266.33" fill="url(#r6steelLt-s)"/><path d="M125.12,263.74 L138.08,266.33 L142.46,263.31" fill="none" stroke="#c3d2dc" stroke-width="1.1" stroke-linejoin="round" opacity="0.4"/><polygon points="93.48,208.87 106.44,211.47 110.83,208.44 97.87,205.85" fill="url(#r6steelLt-t)"/><polygon points="93.48,219.13 106.44,221.73 106.44,211.47 93.48,208.87" fill="url(#r6steelLt-f)"/><polygon points="106.44,221.73 110.83,218.7 110.83,208.44 106.44,211.47" fill="url(#r6steelLt-s)"/><path d="M93.48,208.87 L106.44,211.47 L110.83,208.44" fill="none" stroke="#c3d2dc" stroke-width="1.1" stroke-linejoin="round" opacity="0.4"/><polygon points="125.12,187.06 138.08,189.65 142.46,186.63 129.5,184.03" fill="url(#r6steelLt-t)"/><polygon points="125.12,197.32 138.08,199.91 138.08,189.65 125.12,187.06" fill="url(#r6steelLt-f)"/><polygon points="138.08,199.91 142.46,196.89 142.46,186.63 138.08,189.65" fill="url(#r6steelLt-s)"/><path d="M125.12,187.06 L138.08,189.65 L142.46,186.63" fill="none" stroke="#c3d2dc" stroke-width="1.1" stroke-linejoin="round" opacity="0.4"/><polygon points="93.48,149.47 106.44,152.07 110.83,149.04 97.87,146.45" fill="url(#r6steelLt-t)"/><polygon points="93.48,159.73 106.44,162.33 106.44,152.07 93.48,149.47" fill="url(#r6steelLt-f)"/><polygon points="106.44,162.33 110.83,159.3 110.83,149.04 106.44,152.07" fill="url(#r6steelLt-s)"/><path d="M93.48,149.47 L106.44,152.07 L110.83,149.04" fill="none" stroke="#c3d2dc" stroke-width="1.1" stroke-linejoin="round" opacity="0.4"/><polygon points="125.12,127.66 138.08,130.25 142.46,127.23 129.5,124.63" fill="url(#r6steelLt-t)"/><polygon points="125.12,137.92 138.08,140.51 138.08,130.25 125.12,127.66" fill="url(#r6steelLt-f)"/><polygon points="138.08,140.51 142.46,137.49 142.46,127.23 138.08,130.25" fill="url(#r6steelLt-s)"/><path d="M125.12,127.66 L138.08,130.25 L142.46,127.23" fill="none" stroke="#c3d2dc" stroke-width="1.1" stroke-linejoin="round" opacity="0.4"/><polygon points="239.28,391.39 252.24,393.99 256.63,390.96 243.67,388.37" fill="url(#r6steelLt-t)"/><polygon points="239.28,401.65 252.24,404.25 252.24,393.99 239.28,391.39" fill="url(#r6steelLt-f)"/><polygon points="252.24,404.25 256.63,401.22 256.63,390.96 252.24,393.99" fill="url(#r6steelLt-s)"/><path d="M239.28,391.39 L252.24,393.99 L256.63,390.96" fill="none" stroke="#c3d2dc" stroke-width="1.1" stroke-linejoin="round" opacity="0.4"/><polygon points="270.92,369.58 283.88,372.17 288.26,369.15 275.3,366.55" fill="url(#r6steelLt-t)"/><polygon points="270.92,379.84 283.88,382.43 283.88,372.17 270.92,369.58" fill="url(#r6steelLt-f)"/><polygon points="283.88,382.43 288.26,379.41 288.26,369.15 283.88,372.17" fill="url(#r6steelLt-s)"/><path d="M270.92,369.58 L283.88,372.17 L288.26,369.15" fill="none" stroke="#c3d2dc" stroke-width="1.1" stroke-linejoin="round" opacity="0.4"/><polygon points="239.28,314.71 252.24,317.31 256.63,314.28 243.67,311.69" fill="url(#r6steelLt-t)"/><polygon points="239.28,324.97 252.24,327.57 252.24,317.31 239.28,314.71" fill="url(#r6steelLt-f)"/><polygon points="252.24,327.57 256.63,324.54 256.63,314.28 252.24,317.31" fill="url(#r6steelLt-s)"/><path d="M239.28,314.71 L252.24,317.31 L256.63,314.28" fill="none" stroke="#c3d2dc" stroke-width="1.1" stroke-linejoin="round" opacity="0.4"/><polygon points="270.92,292.9 283.88,295.49 288.26,292.47 275.3,289.87" fill="url(#r6steelLt-t)"/><polygon points="270.92,303.16 283.88,305.75 283.88,295.49 270.92,292.9" fill="url(#r6steelLt-f)"/><polygon points="283.88,305.75 288.26,302.73 288.26,292.47 283.88,295.49" fill="url(#r6steelLt-s)"/><path d="M270.92,292.9 L283.88,295.49 L288.26,292.47" fill="none" stroke="#c3d2dc" stroke-width="1.1" stroke-linejoin="round" opacity="0.4"/><polygon points="239.28,238.03 252.24,240.63 256.63,237.6 243.67,235.01" fill="url(#r6steelLt-t)"/><polygon points="239.28,248.29 252.24,250.89 252.24,240.63 239.28,238.03" fill="url(#r6steelLt-f)"/><polygon points="252.24,250.89 256.63,247.86 256.63,237.6 252.24,240.63" fill="url(#r6steelLt-s)"/><path d="M239.28,238.03 L252.24,240.63 L256.63,237.6" fill="none" stroke="#c3d2dc" stroke-width="1.1" stroke-linejoin="round" opacity="0.4"/><polygon points="270.92,216.22 283.88,218.81 288.26,215.79 275.3,213.19" fill="url(#r6steelLt-t)"/><polygon points="270.92,226.48 283.88,229.07 283.88,218.81 270.92,216.22" fill="url(#r6steelLt-f)"/><polygon points="283.88,229.07 288.26,226.05 288.26,215.79 283.88,218.81" fill="url(#r6steelLt-s)"/><path d="M270.92,216.22 L283.88,218.81 L288.26,215.79" fill="none" stroke="#c3d2dc" stroke-width="1.1" stroke-linejoin="round" opacity="0.4"/><polygon points="239.28,178.63 252.24,181.23 256.63,178.2 243.67,175.61" fill="url(#r6steelLt-t)"/><polygon points="239.28,188.89 252.24,191.49 252.24,181.23 239.28,178.63" fill="url(#r6steelLt-f)"/><polygon points="252.24,191.49 256.63,188.46 256.63,178.2 252.24,181.23" fill="url(#r6steelLt-s)"/><path d="M239.28,178.63 L252.24,181.23 L256.63,178.2" fill="none" stroke="#c3d2dc" stroke-width="1.1" stroke-linejoin="round" opacity="0.4"/><polygon points="270.92,156.82 283.88,159.41 288.26,156.39 275.3,153.79" fill="url(#r6steelLt-t)"/><polygon points="270.92,167.08 283.88,169.67 283.88,159.41 270.92,156.82" fill="url(#r6steelLt-f)"/><polygon points="283.88,169.67 288.26,166.65 288.26,156.39 283.88,159.41" fill="url(#r6steelLt-s)"/><path d="M270.92,156.82 L283.88,159.41 L288.26,156.39" fill="none" stroke="#c3d2dc" stroke-width="1.1" stroke-linejoin="round" opacity="0.4"/><polygon points="385.08,420.55 398.04,423.15 402.43,420.12 389.47,417.53" fill="url(#r6steelLt-t)"/><polygon points="385.08,430.81 398.04,433.41 398.04,423.15 385.08,420.55" fill="url(#r6steelLt-f)"/><polygon points="398.04,433.41 402.43,430.38 402.43,420.12 398.04,423.15" fill="url(#r6steelLt-s)"/><path d="M385.08,420.55 L398.04,423.15 L402.43,420.12" fill="none" stroke="#c3d2dc" stroke-width="1.1" stroke-linejoin="round" opacity="0.4"/><polygon points="416.72,398.74 429.68,401.33 434.06,398.31 421.1,395.71" fill="url(#r6steelLt-t)"/><polygon points="416.72,409 429.68,411.59 429.68,401.33 416.72,398.74" fill="url(#r6steelLt-f)"/><polygon points="429.68,411.59 434.06,408.57 434.06,398.31 429.68,401.33" fill="url(#r6steelLt-s)"/><path d="M416.72,398.74 L429.68,401.33 L434.06,398.31" fill="none" stroke="#c3d2dc" stroke-width="1.1" stroke-linejoin="round" opacity="0.4"/><polygon points="385.08,343.87 398.04,346.47 402.43,343.44 389.47,340.85" fill="url(#r6steelLt-t)"/><polygon points="385.08,354.13 398.04,356.73 398.04,346.47 385.08,343.87" fill="url(#r6steelLt-f)"/><polygon points="398.04,356.73 402.43,353.7 402.43,343.44 398.04,346.47" fill="url(#r6steelLt-s)"/><path d="M385.08,343.87 L398.04,346.47 L402.43,343.44" fill="none" stroke="#c3d2dc" stroke-width="1.1" stroke-linejoin="round" opacity="0.4"/><polygon points="416.72,322.06 429.68,324.65 434.06,321.63 421.1,319.03" fill="url(#r6steelLt-t)"/><polygon points="416.72,332.32 429.68,334.91 429.68,324.65 416.72,322.06" fill="url(#r6steelLt-f)"/><polygon points="429.68,334.91 434.06,331.89 434.06,321.63 429.68,324.65" fill="url(#r6steelLt-s)"/><path d="M416.72,322.06 L429.68,324.65 L434.06,321.63" fill="none" stroke="#c3d2dc" stroke-width="1.1" stroke-linejoin="round" opacity="0.4"/><polygon points="385.08,267.19 398.04,269.79 402.43,266.76 389.47,264.17" fill="url(#r6steelLt-t)"/><polygon points="385.08,277.45 398.04,280.05 398.04,269.79 385.08,267.19" fill="url(#r6steelLt-f)"/><polygon points="398.04,280.05 402.43,277.02 402.43,266.76 398.04,269.79" fill="url(#r6steelLt-s)"/><path d="M385.08,267.19 L398.04,269.79 L402.43,266.76" fill="none" stroke="#c3d2dc" stroke-width="1.1" stroke-linejoin="round" opacity="0.4"/><polygon points="416.72,245.38 429.68,247.97 434.06,244.95 421.1,242.35" fill="url(#r6steelLt-t)"/><polygon points="416.72,255.64 429.68,258.23 429.68,247.97 416.72,245.38" fill="url(#r6steelLt-f)"/><polygon points="429.68,258.23 434.06,255.21 434.06,244.95 429.68,247.97" fill="url(#r6steelLt-s)"/><path d="M416.72,245.38 L429.68,247.97 L434.06,244.95" fill="none" stroke="#c3d2dc" stroke-width="1.1" stroke-linejoin="round" opacity="0.4"/><polygon points="385.08,207.79 398.04,210.39 402.43,207.36 389.47,204.77" fill="url(#r6steelLt-t)"/><polygon points="385.08,218.05 398.04,220.65 398.04,210.39 385.08,207.79" fill="url(#r6steelLt-f)"/><polygon points="398.04,220.65 402.43,217.62 402.43,207.36 398.04,210.39" fill="url(#r6steelLt-s)"/><path d="M385.08,207.79 L398.04,210.39 L402.43,207.36" fill="none" stroke="#c3d2dc" stroke-width="1.1" stroke-linejoin="round" opacity="0.4"/><polygon points="416.72,185.98 429.68,188.57 434.06,185.55 421.1,182.95" fill="url(#r6steelLt-t)"/><polygon points="416.72,196.24 429.68,198.83 429.68,188.57 416.72,185.98" fill="url(#r6steelLt-f)"/><polygon points="429.68,198.83 434.06,195.81 434.06,185.55 429.68,188.57" fill="url(#r6steelLt-s)"/><path d="M416.72,185.98 L429.68,188.57 L434.06,185.55" fill="none" stroke="#c3d2dc" stroke-width="1.1" stroke-linejoin="round" opacity="0.4"/><polygon points="530.88,449.71 543.84,452.31 548.23,449.28 535.27,446.69" fill="url(#r6steelLt-t)"/><polygon points="530.88,459.97 543.84,462.57 543.84,452.31 530.88,449.71" fill="url(#r6steelLt-f)"/><polygon points="543.84,462.57 548.23,459.54 548.23,449.28 543.84,452.31" fill="url(#r6steelLt-s)"/><path d="M530.88,449.71 L543.84,452.31 L548.23,449.28" fill="none" stroke="#c3d2dc" stroke-width="1.1" stroke-linejoin="round" opacity="0.4"/><polygon points="562.52,427.9 575.48,430.49 579.86,427.47 566.9,424.87" fill="url(#r6steelLt-t)"/><polygon points="562.52,438.16 575.48,440.75 575.48,430.49 562.52,427.9" fill="url(#r6steelLt-f)"/><polygon points="575.48,440.75 579.86,437.73 579.86,427.47 575.48,430.49" fill="url(#r6steelLt-s)"/><path d="M562.52,427.9 L575.48,430.49 L579.86,427.47" fill="none" stroke="#c3d2dc" stroke-width="1.1" stroke-linejoin="round" opacity="0.4"/><polygon points="530.88,373.03 543.84,375.63 548.23,372.6 535.27,370.01" fill="url(#r6steelLt-t)"/><polygon points="530.88,383.29 543.84,385.89 543.84,375.63 530.88,373.03" fill="url(#r6steelLt-f)"/><polygon points="543.84,385.89 548.23,382.86 548.23,372.6 543.84,375.63" fill="url(#r6steelLt-s)"/><path d="M530.88,373.03 L543.84,375.63 L548.23,372.6" fill="none" stroke="#c3d2dc" stroke-width="1.1" stroke-linejoin="round" opacity="0.4"/><polygon points="562.52,351.22 575.48,353.81 579.86,350.79 566.9,348.19" fill="url(#r6steelLt-t)"/><polygon points="562.52,361.48 575.48,364.07 575.48,353.81 562.52,351.22" fill="url(#r6steelLt-f)"/><polygon points="575.48,364.07 579.86,361.05 579.86,350.79 575.48,353.81" fill="url(#r6steelLt-s)"/><path d="M562.52,351.22 L575.48,353.81 L579.86,350.79" fill="none" stroke="#c3d2dc" stroke-width="1.1" stroke-linejoin="round" opacity="0.4"/><polygon points="530.88,296.35 543.84,298.95 548.23,295.92 535.27,293.33" fill="url(#r6steelLt-t)"/><polygon points="530.88,306.61 543.84,309.21 543.84,298.95 530.88,296.35" fill="url(#r6steelLt-f)"/><polygon points="543.84,309.21 548.23,306.18 548.23,295.92 543.84,298.95" fill="url(#r6steelLt-s)"/><path d="M530.88,296.35 L543.84,298.95 L548.23,295.92" fill="none" stroke="#c3d2dc" stroke-width="1.1" stroke-linejoin="round" opacity="0.4"/><polygon points="562.52,274.54 575.48,277.13 579.86,274.11 566.9,271.51" fill="url(#r6steelLt-t)"/><polygon points="562.52,284.8 575.48,287.39 575.48,277.13 562.52,274.54" fill="url(#r6steelLt-f)"/><polygon points="575.48,287.39 579.86,284.37 579.86,274.11 575.48,277.13" fill="url(#r6steelLt-s)"/><path d="M562.52,274.54 L575.48,277.13 L579.86,274.11" fill="none" stroke="#c3d2dc" stroke-width="1.1" stroke-linejoin="round" opacity="0.4"/><polygon points="530.88,236.95 543.84,239.55 548.23,236.52 535.27,233.93" fill="url(#r6steelLt-t)"/><polygon points="530.88,247.21 543.84,249.81 543.84,239.55 530.88,236.95" fill="url(#r6steelLt-f)"/><polygon points="543.84,249.81 548.23,246.78 548.23,236.52 543.84,239.55" fill="url(#r6steelLt-s)"/><path d="M530.88,236.95 L543.84,239.55 L548.23,236.52" fill="none" stroke="#c3d2dc" stroke-width="1.1" stroke-linejoin="round" opacity="0.4"/><polygon points="562.52,215.14 575.48,217.73 579.86,214.71 566.9,212.11" fill="url(#r6steelLt-t)"/><polygon points="562.52,225.4 575.48,227.99 575.48,217.73 562.52,215.14" fill="url(#r6steelLt-f)"/><polygon points="575.48,227.99 579.86,224.97 579.86,214.71 575.48,217.73" fill="url(#r6steelLt-s)"/><path d="M562.52,215.14 L575.48,217.73 L579.86,214.71" fill="none" stroke="#c3d2dc" stroke-width="1.1" stroke-linejoin="round" opacity="0.4"/><polygon points="105.44,361.59 236.12,387.72 268.38,365.47 137.7,339.34" fill="url(#r6steelDk-t)"/><polygon points="105.44,363.48 236.12,389.61 236.12,387.72 105.44,361.59" fill="url(#r6steelDk-f)"/><polygon points="236.12,389.61 268.38,367.36 268.38,365.47 236.12,387.72" fill="url(#r6steelDk-s)"/><path d="M105.44,361.59 L236.12,387.72 L268.38,365.47" fill="none" stroke="#8ea3b1" stroke-width="1.1" stroke-linejoin="round" opacity="0.35"/><path d="M121.77,364.58 L154.03,342.34 M138.11,367.85 L170.37,345.6 M154.44,371.12 L186.7,348.87 M170.78,374.38 L203.04,352.14 M187.11,377.65 L219.37,355.4 M203.45,380.92 L235.71,358.67 M219.78,384.19 L252.04,361.94" stroke="#9db0bd" stroke-width="0.6" opacity="0.3" fill="none"/><polygon points="105.44,284.91 236.12,311.04 268.38,288.79 137.7,262.66" fill="url(#r6steelDk-t)"/><polygon points="105.44,286.8 236.12,312.93 236.12,311.04 105.44,284.91" fill="url(#r6steelDk-f)"/><polygon points="236.12,312.93 268.38,290.68 268.38,288.79 236.12,311.04" fill="url(#r6steelDk-s)"/><path d="M105.44,284.91 L236.12,311.04 L268.38,288.79" fill="none" stroke="#8ea3b1" stroke-width="1.1" stroke-linejoin="round" opacity="0.35"/><path d="M121.77,287.9 L154.03,265.66 M138.11,291.17 L170.37,268.92 M154.44,294.44 L186.7,272.19 M170.78,297.7 L203.04,275.46 M187.11,300.97 L219.37,278.72 M203.45,304.24 L235.71,281.99 M219.78,307.51 L252.04,285.26" stroke="#9db0bd" stroke-width="0.6" opacity="0.3" fill="none"/><polygon points="105.44,208.23 236.12,234.36 268.38,212.11 137.7,185.98" fill="url(#r6steelDk-t)"/><polygon points="105.44,210.12 236.12,236.25 236.12,234.36 105.44,208.23" fill="url(#r6steelDk-f)"/><polygon points="236.12,236.25 268.38,214 268.38,212.11 236.12,234.36" fill="url(#r6steelDk-s)"/><path d="M105.44,208.23 L236.12,234.36 L268.38,212.11" fill="none" stroke="#8ea3b1" stroke-width="1.1" stroke-linejoin="round" opacity="0.35"/><path d="M121.77,211.22 L154.03,188.98 M138.11,214.49 L170.37,192.24 M154.44,217.76 L186.7,195.51 M170.78,221.02 L203.04,198.78 M187.11,224.29 L219.37,202.04 M203.45,227.56 L235.71,205.31 M219.78,230.83 L252.04,208.58" stroke="#9db0bd" stroke-width="0.6" opacity="0.3" fill="none"/><polygon points="105.44,148.83 236.12,174.96 268.38,152.71 137.7,126.58" fill="url(#r6steelDk-t)"/><polygon points="105.44,150.72 236.12,176.85 236.12,174.96 105.44,148.83" fill="url(#r6steelDk-f)"/><polygon points="236.12,176.85 268.38,154.6 268.38,152.71 236.12,174.96" fill="url(#r6steelDk-s)"/><path d="M105.44,148.83 L236.12,174.96 L268.38,152.71" fill="none" stroke="#8ea3b1" stroke-width="1.1" stroke-linejoin="round" opacity="0.35"/><path d="M121.77,151.82 L154.03,129.57 M138.11,155.09 L170.37,132.84 M154.44,158.36 L186.7,136.11 M170.78,161.62 L203.04,139.38 M187.11,164.89 L219.37,142.64 M203.45,168.16 L235.71,145.91 M219.78,171.43 L252.04,149.18" stroke="#9db0bd" stroke-width="0.6" opacity="0.3" fill="none"/><polygon points="251.24,390.75 381.92,416.88 414.18,394.63 283.5,368.5" fill="url(#r6steelDk-t)"/><polygon points="251.24,392.64 381.92,418.77 381.92,416.88 251.24,390.75" fill="url(#r6steelDk-f)"/><polygon points="381.92,418.77 414.18,396.52 414.18,394.63 381.92,416.88" fill="url(#r6steelDk-s)"/><path d="M251.24,390.75 L381.92,416.88 L414.18,394.63" fill="none" stroke="#8ea3b1" stroke-width="1.1" stroke-linejoin="round" opacity="0.35"/><path d="M267.57,393.74 L299.83,371.5 M283.91,397.01 L316.17,374.76 M300.24,400.28 L332.5,378.03 M316.58,403.54 L348.84,381.3 M332.91,406.81 L365.17,384.56 M349.25,410.08 L381.51,387.83 M365.58,413.35 L397.84,391.1" stroke="#9db0bd" stroke-width="0.6" opacity="0.3" fill="none"/><polygon points="251.24,314.07 381.92,340.2 414.18,317.95 283.5,291.82" fill="url(#r6steelDk-t)"/><polygon points="251.24,315.96 381.92,342.09 381.92,340.2 251.24,314.07" fill="url(#r6steelDk-f)"/><polygon points="381.92,342.09 414.18,319.84 414.18,317.95 381.92,340.2" fill="url(#r6steelDk-s)"/><path d="M251.24,314.07 L381.92,340.2 L414.18,317.95" fill="none" stroke="#8ea3b1" stroke-width="1.1" stroke-linejoin="round" opacity="0.35"/><path d="M267.57,317.06 L299.83,294.82 M283.91,320.33 L316.17,298.08 M300.24,323.6 L332.5,301.35 M316.58,326.86 L348.84,304.62 M332.91,330.13 L365.17,307.88 M349.25,333.4 L381.51,311.15 M365.58,336.67 L397.84,314.42" stroke="#9db0bd" stroke-width="0.6" opacity="0.3" fill="none"/><polygon points="251.24,237.39 381.92,263.52 414.18,241.27 283.5,215.14" fill="url(#r6steelDk-t)"/><polygon points="251.24,239.28 381.92,265.41 381.92,263.52 251.24,237.39" fill="url(#r6steelDk-f)"/><polygon points="381.92,265.41 414.18,243.16 414.18,241.27 381.92,263.52" fill="url(#r6steelDk-s)"/><path d="M251.24,237.39 L381.92,263.52 L414.18,241.27" fill="none" stroke="#8ea3b1" stroke-width="1.1" stroke-linejoin="round" opacity="0.35"/><path d="M267.57,240.38 L299.83,218.14 M283.91,243.65 L316.17,221.4 M300.24,246.92 L332.5,224.67 M316.58,250.18 L348.84,227.94 M332.91,253.45 L365.17,231.2 M349.25,256.72 L381.51,234.47 M365.58,259.99 L397.84,237.74" stroke="#9db0bd" stroke-width="0.6" opacity="0.3" fill="none"/><polygon points="251.24,177.99 381.92,204.12 414.18,181.87 283.5,155.74" fill="url(#r6steelDk-t)"/><polygon points="251.24,179.88 381.92,206.01 381.92,204.12 251.24,177.99" fill="url(#r6steelDk-f)"/><polygon points="381.92,206.01 414.18,183.76 414.18,181.87 381.92,204.12" fill="url(#r6steelDk-s)"/><path d="M251.24,177.99 L381.92,204.12 L414.18,181.87" fill="none" stroke="#8ea3b1" stroke-width="1.1" stroke-linejoin="round" opacity="0.35"/><path d="M267.57,180.98 L299.83,158.73 M283.91,184.25 L316.17,162 M300.24,187.52 L332.5,165.27 M316.58,190.78 L348.84,168.54 M332.91,194.05 L365.17,171.8 M349.25,197.32 L381.51,175.07 M365.58,200.58 L397.84,178.34" stroke="#9db0bd" stroke-width="0.6" opacity="0.3" fill="none"/><polygon points="397.04,419.91 527.72,446.04 559.98,423.79 429.3,397.66" fill="url(#r6steelDk-t)"/><polygon points="397.04,421.8 527.72,447.93 527.72,446.04 397.04,419.91" fill="url(#r6steelDk-f)"/><polygon points="527.72,447.93 559.98,425.68 559.98,423.79 527.72,446.04" fill="url(#r6steelDk-s)"/><path d="M397.04,419.91 L527.72,446.04 L559.98,423.79" fill="none" stroke="#8ea3b1" stroke-width="1.1" stroke-linejoin="round" opacity="0.35"/><path d="M413.37,422.9 L445.63,400.66 M429.71,426.17 L461.97,403.92 M446.04,429.44 L478.3,407.19 M462.38,432.7 L494.64,410.46 M478.71,435.97 L510.97,413.72 M495.05,439.24 L527.31,416.99 M511.38,442.51 L543.64,420.26" stroke="#9db0bd" stroke-width="0.6" opacity="0.3" fill="none"/><polygon points="397.04,343.23 527.72,369.36 559.98,347.11 429.3,320.98" fill="url(#r6steelDk-t)"/><polygon points="397.04,345.12 527.72,371.25 527.72,369.36 397.04,343.23" fill="url(#r6steelDk-f)"/><polygon points="527.72,371.25 559.98,349 559.98,347.11 527.72,369.36" fill="url(#r6steelDk-s)"/><path d="M397.04,343.23 L527.72,369.36 L559.98,347.11" fill="none" stroke="#8ea3b1" stroke-width="1.1" stroke-linejoin="round" opacity="0.35"/><path d="M413.37,346.22 L445.63,323.98 M429.71,349.49 L461.97,327.24 M446.04,352.76 L478.3,330.51 M462.38,356.02 L494.64,333.78 M478.71,359.29 L510.97,337.04 M495.05,362.56 L527.31,340.31 M511.38,365.83 L543.64,343.58" stroke="#9db0bd" stroke-width="0.6" opacity="0.3" fill="none"/><polygon points="397.04,266.55 527.72,292.68 559.98,270.43 429.3,244.3" fill="url(#r6steelDk-t)"/><polygon points="397.04,268.44 527.72,294.57 527.72,292.68 397.04,266.55" fill="url(#r6steelDk-f)"/><polygon points="527.72,294.57 559.98,272.32 559.98,270.43 527.72,292.68" fill="url(#r6steelDk-s)"/><path d="M397.04,266.55 L527.72,292.68 L559.98,270.43" fill="none" stroke="#8ea3b1" stroke-width="1.1" stroke-linejoin="round" opacity="0.35"/><path d="M413.37,269.54 L445.63,247.3 M429.71,272.81 L461.97,250.56 M446.04,276.08 L478.3,253.83 M462.38,279.34 L494.64,257.1 M478.71,282.61 L510.97,260.36 M495.05,285.88 L527.31,263.63 M511.38,289.15 L543.64,266.9" stroke="#9db0bd" stroke-width="0.6" opacity="0.3" fill="none"/><polygon points="397.04,207.15 527.72,233.28 559.98,211.03 429.3,184.9" fill="url(#r6steelDk-t)"/><polygon points="397.04,209.04 527.72,235.17 527.72,233.28 397.04,207.15" fill="url(#r6steelDk-f)"/><polygon points="527.72,235.17 559.98,212.92 559.98,211.03 527.72,233.28" fill="url(#r6steelDk-s)"/><path d="M397.04,207.15 L527.72,233.28 L559.98,211.03" fill="none" stroke="#8ea3b1" stroke-width="1.1" stroke-linejoin="round" opacity="0.35"/><path d="M413.37,210.14 L445.63,187.9 M429.71,213.41 L461.97,191.16 M446.04,216.68 L478.3,194.43 M462.38,219.94 L494.64,197.7 M478.71,223.21 L510.97,200.96 M495.05,226.48 L527.31,204.23 M511.38,229.75 L543.64,207.5" stroke="#9db0bd" stroke-width="0.6" opacity="0.3" fill="none"/><g filter="url(#r6b14)" opacity="0.22"><polygon points="103.91,362.61 530.51,447.93 561.51,426.55 134.91,341.23" fill="#000000"/></g><g filter="url(#r6b14)" opacity="0.22"><polygon points="103.91,285.93 530.51,371.25 561.51,349.87 134.91,264.55" fill="#000000"/></g><g filter="url(#r6b14)" opacity="0.22"><polygon points="103.91,209.25 530.51,294.57 561.51,273.19 134.91,187.87" fill="#000000"/></g><g filter="url(#r6b14)" opacity="0.22"><polygon points="103.91,149.85 530.51,235.17 561.51,213.79 134.91,128.47" fill="#000000"/></g><polygon points="115.59,278.48 124.23,280.21 150.85,261.85 142.21,260.12" fill="url(#r6wood-t)"/><polygon points="115.59,283.88 124.23,285.61 124.23,280.21 115.59,278.48" fill="url(#r6wood-f)"/><polygon points="124.23,285.61 150.85,267.25 150.85,261.85 124.23,280.21" fill="url(#r6wood-s)"/><polygon points="172.29,289.82 180.93,291.55 207.55,273.19 198.91,271.46" fill="url(#r6wood-t)"/><polygon points="172.29,295.22 180.93,296.95 180.93,291.55 172.29,289.82" fill="url(#r6wood-f)"/><polygon points="180.93,296.95 207.55,278.59 207.55,273.19 180.93,291.55" fill="url(#r6wood-s)"/><polygon points="228.99,301.16 237.63,302.89 264.25,284.53 255.61,282.8" fill="url(#r6wood-t)"/><polygon points="228.99,306.56 237.63,308.29 237.63,302.89 228.99,301.16" fill="url(#r6wood-f)"/><polygon points="237.63,308.29 264.25,289.93 264.25,284.53 237.63,302.89" fill="url(#r6wood-s)"/><polygon points="111.64,276.37 233.68,300.78 263.43,280.26 141.39,255.85" fill="url(#r6wood-t)"/><polygon points="111.64,278.8 233.68,303.21 233.68,300.78 111.64,276.37" fill="url(#r6wood-f)"/><polygon points="233.68,303.21 263.43,282.69 263.43,280.26 233.68,300.78" fill="url(#r6wood-s)"/><polygon points="111.64,274.48 233.68,298.89 239.55,294.84 117.51,270.43" fill="url(#r6wood-t)"/><polygon points="111.64,276.37 233.68,300.78 233.68,298.89 111.64,274.48" fill="url(#r6wood-f)"/><polygon points="233.68,300.78 239.55,296.73 239.55,294.84 233.68,298.89" fill="url(#r6wood-s)"/><path d="M111.64,274.48 L233.68,298.89 L239.55,294.84" fill="none" stroke="#e2bd85" stroke-width="1.1" stroke-linejoin="round" opacity="0.3"/><polygon points="118.92,269.46 240.96,293.87 246.83,289.82 124.79,265.41" fill="url(#r6wood-t)"/><polygon points="118.92,271.35 240.96,295.76 240.96,293.87 118.92,269.46" fill="url(#r6wood-f)"/><polygon points="240.96,295.76 246.83,291.71 246.83,289.82 240.96,293.87" fill="url(#r6wood-s)"/><path d="M118.92,269.46 L240.96,293.87 L246.83,289.82" fill="none" stroke="#e2bd85" stroke-width="1.1" stroke-linejoin="round" opacity="0.3"/><polygon points="126.2,264.44 248.24,288.85 254.11,284.8 132.07,260.39" fill="url(#r6wood-t)"/><polygon points="126.2,266.33 248.24,290.74 248.24,288.85 126.2,264.44" fill="url(#r6wood-f)"/><polygon points="248.24,290.74 254.11,286.69 254.11,284.8 248.24,288.85" fill="url(#r6wood-s)"/><path d="M126.2,264.44 L248.24,288.85 L254.11,284.8" fill="none" stroke="#e2bd85" stroke-width="1.1" stroke-linejoin="round" opacity="0.3"/><polygon points="133.48,259.42 255.52,283.83 261.4,279.78 139.36,255.37" fill="url(#r6wood-t)"/><polygon points="133.48,261.31 255.52,285.72 255.52,283.83 133.48,259.42" fill="url(#r6wood-f)"/><polygon points="255.52,285.72 261.4,281.67 261.4,279.78 255.52,283.83" fill="url(#r6wood-s)"/><path d="M133.48,259.42 L255.52,283.83 L261.4,279.78" fill="none" stroke="#e2bd85" stroke-width="1.1" stroke-linejoin="round" opacity="0.3"/><polygon points="116.31,256.96 173.01,268.3 186.01,259.33 129.31,247.99" fill="url(#r6carton-t)"/><polygon points="116.31,274.78 173.01,286.12 173.01,268.3 116.31,256.96" fill="url(#r6carton-f)"/><polygon points="173.01,286.12 186.01,277.15 186.01,259.33 173.01,268.3" fill="url(#r6carton-s)"/><path d="M116.31,256.96 L173.01,268.3 L186.01,259.33" fill="none" stroke="#e8c79a" stroke-width="1.1" stroke-linejoin="round" opacity="0.32"/><polygon points="175.46,268.33 232.16,279.67 245.15,270.7 188.45,259.36" fill="url(#r6carton-t)"/><polygon points="175.46,286.15 232.16,297.49 232.16,279.67 175.46,268.33" fill="url(#r6carton-f)"/><polygon points="232.16,297.49 245.15,288.52 245.15,270.7 232.16,279.67" fill="url(#r6carton-s)"/><path d="M175.46,268.33 L232.16,279.67 L245.15,270.7" fill="none" stroke="#e8c79a" stroke-width="1.1" stroke-linejoin="round" opacity="0.32"/><polygon points="129.84,246.27 186.54,257.61 199.53,248.64 142.83,237.3" fill="url(#r6carton-t)"/><polygon points="129.84,264.09 186.54,275.43 186.54,257.61 129.84,246.27" fill="url(#r6carton-f)"/><polygon points="186.54,275.43 199.53,266.46 199.53,248.64 186.54,257.61" fill="url(#r6carton-s)"/><path d="M129.84,246.27 L186.54,257.61 L199.53,248.64" fill="none" stroke="#e8c79a" stroke-width="1.1" stroke-linejoin="round" opacity="0.32"/><polygon points="189.75,257.88 246.45,269.22 259.45,260.25 202.75,248.91" fill="url(#r6cartonB-t)"/><polygon points="189.75,275.7 246.45,287.04 246.45,269.22 189.75,257.88" fill="url(#r6cartonB-f)"/><polygon points="246.45,287.04 259.45,278.07 259.45,260.25 246.45,269.22" fill="url(#r6cartonB-s)"/><path d="M189.75,257.88 L246.45,269.22 L259.45,260.25" fill="none" stroke="#e8c79a" stroke-width="1.1" stroke-linejoin="round" opacity="0.32"/><polygon points="116.31,236.98 173.01,248.32 186.01,239.36 129.31,228.02" fill="url(#r6cartonB-t)"/><polygon points="116.31,254.8 173.01,266.14 173.01,248.32 116.31,236.98" fill="url(#r6cartonB-f)"/><polygon points="173.01,266.14 186.01,257.18 186.01,239.36 173.01,248.32" fill="url(#r6cartonB-s)"/><path d="M116.31,236.98 L173.01,248.32 L186.01,239.36" fill="none" stroke="#e8c79a" stroke-width="1.1" stroke-linejoin="round" opacity="0.32"/><polygon points="175.78,248.3 232.48,259.64 245.47,250.68 188.77,239.34" fill="url(#r6carton-t)"/><polygon points="175.78,266.12 232.48,277.46 232.48,259.64 175.78,248.3" fill="url(#r6carton-f)"/><polygon points="232.48,277.46 245.47,268.5 245.47,250.68 232.48,259.64" fill="url(#r6carton-s)"/><path d="M175.78,248.3 L232.48,259.64 L245.47,250.68" fill="none" stroke="#e8c79a" stroke-width="1.1" stroke-linejoin="round" opacity="0.32"/><polygon points="130.9,227.23 187.6,238.57 200.6,229.6 143.9,218.26" fill="url(#r6cartonB-t)"/><polygon points="130.9,245.05 187.6,256.39 187.6,238.57 130.9,227.23" fill="url(#r6cartonB-f)"/><polygon points="187.6,256.39 200.6,247.42 200.6,229.6 187.6,238.57" fill="url(#r6cartonB-s)"/><path d="M130.9,227.23 L187.6,238.57 L200.6,229.6" fill="none" stroke="#e8c79a" stroke-width="1.1" stroke-linejoin="round" opacity="0.32"/><polygon points="188.33,238.64 245.03,249.98 258.03,241.01 201.33,229.67" fill="url(#r6carton-t)"/><polygon points="188.33,256.46 245.03,267.8 245.03,249.98 188.33,238.64" fill="url(#r6carton-f)"/><polygon points="245.03,267.8 258.03,258.83 258.03,241.01 245.03,249.98" fill="url(#r6carton-s)"/><path d="M188.33,238.64 L245.03,249.98 L258.03,241.01" fill="none" stroke="#e8c79a" stroke-width="1.1" stroke-linejoin="round" opacity="0.32"/><polygon points="261.39,307.64 270.03,309.37 296.65,291.01 288.01,289.28" fill="url(#r6wood-t)"/><polygon points="261.39,313.04 270.03,314.77 270.03,309.37 261.39,307.64" fill="url(#r6wood-f)"/><polygon points="270.03,314.77 296.65,296.41 296.65,291.01 270.03,309.37" fill="url(#r6wood-s)"/><polygon points="318.09,318.98 326.73,320.71 353.35,302.35 344.71,300.62" fill="url(#r6wood-t)"/><polygon points="318.09,324.38 326.73,326.11 326.73,320.71 318.09,318.98" fill="url(#r6wood-f)"/><polygon points="326.73,326.11 353.35,307.75 353.35,302.35 326.73,320.71" fill="url(#r6wood-s)"/><polygon points="374.79,330.32 383.43,332.05 410.05,313.69 401.41,311.96" fill="url(#r6wood-t)"/><polygon points="374.79,335.72 383.43,337.45 383.43,332.05 374.79,330.32" fill="url(#r6wood-f)"/><polygon points="383.43,337.45 410.05,319.09 410.05,313.69 383.43,332.05" fill="url(#r6wood-s)"/><polygon points="257.44,305.53 379.48,329.94 409.23,309.42 287.19,285.01" fill="url(#r6wood-t)"/><polygon points="257.44,307.96 379.48,332.37 379.48,329.94 257.44,305.53" fill="url(#r6wood-f)"/><polygon points="379.48,332.37 409.23,311.85 409.23,309.42 379.48,329.94" fill="url(#r6wood-s)"/><polygon points="257.44,303.64 379.48,328.05 385.35,324 263.31,299.59" fill="url(#r6wood-t)"/><polygon points="257.44,305.53 379.48,329.94 379.48,328.05 257.44,303.64" fill="url(#r6wood-f)"/><polygon points="379.48,329.94 385.35,325.89 385.35,324 379.48,328.05" fill="url(#r6wood-s)"/><path d="M257.44,303.64 L379.48,328.05 L385.35,324" fill="none" stroke="#e2bd85" stroke-width="1.1" stroke-linejoin="round" opacity="0.3"/><polygon points="264.72,298.62 386.76,323.03 392.63,318.98 270.59,294.57" fill="url(#r6wood-t)"/><polygon points="264.72,300.51 386.76,324.92 386.76,323.03 264.72,298.62" fill="url(#r6wood-f)"/><polygon points="386.76,324.92 392.63,320.87 392.63,318.98 386.76,323.03" fill="url(#r6wood-s)"/><path d="M264.72,298.62 L386.76,323.03 L392.63,318.98" fill="none" stroke="#e2bd85" stroke-width="1.1" stroke-linejoin="round" opacity="0.3"/><polygon points="272,293.6 394.04,318.01 399.91,313.96 277.87,289.55" fill="url(#r6wood-t)"/><polygon points="272,295.49 394.04,319.9 394.04,318.01 272,293.6" fill="url(#r6wood-f)"/><polygon points="394.04,319.9 399.91,315.85 399.91,313.96 394.04,318.01" fill="url(#r6wood-s)"/><path d="M272,293.6 L394.04,318.01 L399.91,313.96" fill="none" stroke="#e2bd85" stroke-width="1.1" stroke-linejoin="round" opacity="0.3"/><polygon points="279.28,288.58 401.32,312.99 407.2,308.94 285.16,284.53" fill="url(#r6wood-t)"/><polygon points="279.28,290.47 401.32,314.88 401.32,312.99 279.28,288.58" fill="url(#r6wood-f)"/><polygon points="401.32,314.88 407.2,310.83 407.2,308.94 401.32,312.99" fill="url(#r6wood-s)"/><path d="M279.28,288.58 L401.32,312.99 L407.2,308.94" fill="none" stroke="#e2bd85" stroke-width="1.1" stroke-linejoin="round" opacity="0.3"/><polygon points="260,284.29 316.16,295.52 328.84,286.77 272.68,275.54" fill="url(#r6carton-t)"/><polygon points="260,303.73 316.16,314.96 316.16,295.52 260,284.29" fill="url(#r6carton-f)"/><polygon points="316.16,314.96 328.84,306.21 328.84,286.77 316.16,295.52" fill="url(#r6carton-s)"/><path d="M260,284.29 L316.16,295.52 L328.84,286.77" fill="none" stroke="#e8c79a" stroke-width="1.1" stroke-linejoin="round" opacity="0.32"/><polygon points="320.18,296.13 376.34,307.37 389.02,298.62 332.86,287.39" fill="url(#r6cartonB-t)"/><polygon points="320.18,315.57 376.34,326.81 376.34,307.37 320.18,296.13" fill="url(#r6cartonB-f)"/><polygon points="376.34,326.81 389.02,318.06 389.02,298.62 376.34,307.37" fill="url(#r6cartonB-s)"/><path d="M320.18,296.13 L376.34,307.37 L389.02,298.62" fill="none" stroke="#e8c79a" stroke-width="1.1" stroke-linejoin="round" opacity="0.32"/><polygon points="274.44,274.26 330.6,285.5 343.28,276.75 287.12,265.52" fill="url(#r6carton-t)"/><polygon points="274.44,293.7 330.6,304.94 330.6,285.5 274.44,274.26" fill="url(#r6carton-f)"/><polygon points="330.6,304.94 343.28,296.19 343.28,276.75 330.6,285.5" fill="url(#r6carton-s)"/><path d="M274.44,274.26 L330.6,285.5 L343.28,276.75" fill="none" stroke="#e8c79a" stroke-width="1.1" stroke-linejoin="round" opacity="0.32"/><polygon points="333.41,285.98 389.57,297.21 402.26,288.46 346.1,277.23" fill="url(#r6carton-t)"/><polygon points="333.41,305.42 389.57,316.65 389.57,297.21 333.41,285.98" fill="url(#r6carton-f)"/><polygon points="389.57,316.65 402.26,307.9 402.26,288.46 389.57,297.21" fill="url(#r6carton-s)"/><path d="M333.41,285.98 L389.57,297.21 L402.26,288.46" fill="none" stroke="#e8c79a" stroke-width="1.1" stroke-linejoin="round" opacity="0.32"/><polygon points="261.67,263.23 317.83,274.46 330.52,265.71 274.36,254.48" fill="url(#r6carton-t)"/><polygon points="261.67,282.67 317.83,293.9 317.83,274.46 261.67,263.23" fill="url(#r6carton-f)"/><polygon points="317.83,293.9 330.52,285.15 330.52,265.71 317.83,274.46" fill="url(#r6carton-s)"/><path d="M261.67,263.23 L317.83,274.46 L330.52,265.71" fill="none" stroke="#e8c79a" stroke-width="1.1" stroke-linejoin="round" opacity="0.32"/><polygon points="320.23,274.82 376.39,286.06 389.08,277.31 332.92,266.08" fill="url(#r6cartonB-t)"/><polygon points="320.23,294.26 376.39,305.5 376.39,286.06 320.23,274.82" fill="url(#r6cartonB-f)"/><polygon points="376.39,305.5 389.08,296.75 389.08,277.31 376.39,286.06" fill="url(#r6cartonB-s)"/><path d="M320.23,274.82 L376.39,286.06 L389.08,277.31" fill="none" stroke="#e8c79a" stroke-width="1.1" stroke-linejoin="round" opacity="0.32"/><polygon points="276.56,253.63 332.72,264.86 345.41,256.11 289.25,244.88" fill="url(#r6cartonB-t)"/><polygon points="276.56,273.07 332.72,284.3 332.72,264.86 276.56,253.63" fill="url(#r6cartonB-f)"/><polygon points="332.72,284.3 345.41,275.55 345.41,256.11 332.72,264.86" fill="url(#r6cartonB-s)"/><path d="M276.56,253.63 L332.72,264.86 L345.41,256.11" fill="none" stroke="#e8c79a" stroke-width="1.1" stroke-linejoin="round" opacity="0.32"/><polygon points="333.51,265.39 389.67,276.62 402.36,267.88 346.2,256.64" fill="url(#r6cartonB-t)"/><polygon points="333.51,284.83 389.67,296.06 389.67,276.62 333.51,265.39" fill="url(#r6cartonB-f)"/><polygon points="389.67,296.06 402.36,287.32 402.36,267.88 389.67,276.62" fill="url(#r6cartonB-s)"/><path d="M333.51,265.39 L389.67,276.62 L402.36,267.88" fill="none" stroke="#e8c79a" stroke-width="1.1" stroke-linejoin="round" opacity="0.32"/><polygon points="259.37,261.63 377.09,285.18 405.59,265.52 287.87,241.98" fill="url(#r6wrap-t)"/><polygon points="259.37,304.83 377.09,328.38 377.09,285.18 259.37,261.63" fill="url(#r6wrap-f)"/><polygon points="377.09,328.38 405.59,308.72 405.59,265.52 377.09,285.18" fill="url(#r6wrap-s)"/><path d="M259.37,261.63 L377.09,285.18 L405.59,265.52" fill="none" stroke="#ffffff" stroke-width="1.1" stroke-linejoin="round" opacity="0.45"/><path d="M263.92,290.2 L371.92,311.8" stroke="#ffffff" stroke-width="1.6" opacity="0.3" fill="none"/><path d="M263.92,278.83 L371.92,300.43" stroke="#ffffff" stroke-width="1.1" opacity="0.2" fill="none"/><polygon points="407.19,260.12 415.83,261.85 442.45,243.49 433.81,241.76" fill="url(#r6wood-t)"/><polygon points="407.19,265.52 415.83,267.25 415.83,261.85 407.19,260.12" fill="url(#r6wood-f)"/><polygon points="415.83,267.25 442.45,248.89 442.45,243.49 415.83,261.85" fill="url(#r6wood-s)"/><polygon points="463.89,271.46 472.53,273.19 499.15,254.83 490.51,253.1" fill="url(#r6wood-t)"/><polygon points="463.89,276.86 472.53,278.59 472.53,273.19 463.89,271.46" fill="url(#r6wood-f)"/><polygon points="472.53,278.59 499.15,260.23 499.15,254.83 472.53,273.19" fill="url(#r6wood-s)"/><polygon points="520.59,282.8 529.23,284.53 555.85,266.17 547.21,264.44" fill="url(#r6wood-t)"/><polygon points="520.59,288.2 529.23,289.93 529.23,284.53 520.59,282.8" fill="url(#r6wood-f)"/><polygon points="529.23,289.93 555.85,271.57 555.85,266.17 529.23,284.53" fill="url(#r6wood-s)"/><polygon points="403.24,258.01 525.28,282.42 555.03,261.9 432.99,237.49" fill="url(#r6wood-t)"/><polygon points="403.24,260.44 525.28,284.85 525.28,282.42 403.24,258.01" fill="url(#r6wood-f)"/><polygon points="525.28,284.85 555.03,264.33 555.03,261.9 525.28,282.42" fill="url(#r6wood-s)"/><polygon points="403.24,256.12 525.28,280.53 531.15,276.48 409.11,252.07" fill="url(#r6wood-t)"/><polygon points="403.24,258.01 525.28,282.42 525.28,280.53 403.24,256.12" fill="url(#r6wood-f)"/><polygon points="525.28,282.42 531.15,278.37 531.15,276.48 525.28,280.53" fill="url(#r6wood-s)"/><path d="M403.24,256.12 L525.28,280.53 L531.15,276.48" fill="none" stroke="#e2bd85" stroke-width="1.1" stroke-linejoin="round" opacity="0.3"/><polygon points="410.52,251.1 532.56,275.51 538.43,271.46 416.39,247.05" fill="url(#r6wood-t)"/><polygon points="410.52,252.99 532.56,277.4 532.56,275.51 410.52,251.1" fill="url(#r6wood-f)"/><polygon points="532.56,277.4 538.43,273.35 538.43,271.46 532.56,275.51" fill="url(#r6wood-s)"/><path d="M410.52,251.1 L532.56,275.51 L538.43,271.46" fill="none" stroke="#e2bd85" stroke-width="1.1" stroke-linejoin="round" opacity="0.3"/><polygon points="417.8,246.08 539.84,270.49 545.71,266.44 423.67,242.03" fill="url(#r6wood-t)"/><polygon points="417.8,247.97 539.84,272.38 539.84,270.49 417.8,246.08" fill="url(#r6wood-f)"/><polygon points="539.84,272.38 545.71,268.33 545.71,266.44 539.84,270.49" fill="url(#r6wood-s)"/><path d="M417.8,246.08 L539.84,270.49 L545.71,266.44" fill="none" stroke="#e2bd85" stroke-width="1.1" stroke-linejoin="round" opacity="0.3"/><polygon points="425.08,241.06 547.12,265.47 553,261.42 430.96,237.01" fill="url(#r6wood-t)"/><polygon points="425.08,242.95 547.12,267.36 547.12,265.47 425.08,241.06" fill="url(#r6wood-f)"/><polygon points="547.12,267.36 553,263.31 553,261.42 547.12,265.47" fill="url(#r6wood-s)"/><path d="M425.08,241.06 L547.12,265.47 L553,261.42" fill="none" stroke="#e2bd85" stroke-width="1.1" stroke-linejoin="round" opacity="0.3"/><circle cx="349.8" cy="204.82" r="4" fill="#ffb020" opacity="0.85" filter="url(#r6b6)"/><polygon points="532.47,373.84 541.11,375.57 568.05,357 559.41,355.27" fill="url(#r6wood-t)"/><polygon points="532.47,379.24 541.11,380.97 541.11,375.57 532.47,373.84" fill="url(#r6wood-f)"/><polygon points="541.11,380.97 568.05,362.4 568.05,357 541.11,375.57" fill="url(#r6wood-s)"/><polygon points="560.55,379.46 569.19,381.19 596.13,362.61 587.49,360.88" fill="url(#r6wood-t)"/><polygon points="560.55,384.86 569.19,386.59 569.19,381.19 560.55,379.46" fill="url(#r6wood-f)"/><polygon points="569.19,386.59 596.13,368.01 596.13,362.61 569.19,381.19" fill="url(#r6wood-s)"/><polygon points="588.63,385.08 597.27,386.8 624.21,368.23 615.57,366.5" fill="url(#r6wood-t)"/><polygon points="588.63,390.48 597.27,392.2 597.27,386.8 588.63,385.08" fill="url(#r6wood-f)"/><polygon points="597.27,392.2 624.21,373.63 624.21,368.23 597.27,386.8" fill="url(#r6wood-s)"/><polygon points="528.52,371.74 593.32,384.7 623.39,363.96 558.59,351" fill="url(#r6wood-t)"/><polygon points="528.52,374.17 593.32,387.13 593.32,384.7 528.52,371.74" fill="url(#r6wood-f)"/><polygon points="593.32,387.13 623.39,366.39 623.39,363.96 593.32,384.7" fill="url(#r6wood-s)"/><polygon points="528.52,369.85 593.32,382.81 599.27,378.7 534.47,365.74" fill="url(#r6wood-t)"/><polygon points="528.52,371.74 593.32,384.7 593.32,382.81 528.52,369.85" fill="url(#r6wood-f)"/><polygon points="593.32,384.7 599.27,380.59 599.27,378.7 593.32,382.81" fill="url(#r6wood-s)"/><path d="M528.52,369.85 L593.32,382.81 L599.27,378.7" fill="none" stroke="#e2bd85" stroke-width="1.1" stroke-linejoin="round" opacity="0.3"/><polygon points="535.88,364.77 600.68,377.73 606.63,373.63 541.83,360.67" fill="url(#r6wood-t)"/><polygon points="535.88,366.66 600.68,379.62 600.68,377.73 535.88,364.77" fill="url(#r6wood-f)"/><polygon points="600.68,379.62 606.63,375.52 606.63,373.63 600.68,377.73" fill="url(#r6wood-s)"/><path d="M535.88,364.77 L600.68,377.73 L606.63,373.63" fill="none" stroke="#e2bd85" stroke-width="1.1" stroke-linejoin="round" opacity="0.3"/><polygon points="543.24,359.7 608.04,372.66 613.99,368.55 549.19,355.59" fill="url(#r6wood-t)"/><polygon points="543.24,361.59 608.04,374.55 608.04,372.66 543.24,359.7" fill="url(#r6wood-f)"/><polygon points="608.04,374.55 613.99,370.44 613.99,368.55 608.04,372.66" fill="url(#r6wood-s)"/><path d="M543.24,359.7 L608.04,372.66 L613.99,368.55" fill="none" stroke="#e2bd85" stroke-width="1.1" stroke-linejoin="round" opacity="0.3"/><polygon points="550.6,354.62 615.4,367.58 621.35,363.48 556.55,350.52" fill="url(#r6wood-t)"/><polygon points="550.6,356.51 615.4,369.47 615.4,367.58 550.6,354.62" fill="url(#r6wood-f)"/><polygon points="615.4,369.47 621.35,365.37 621.35,363.48 615.4,367.58" fill="url(#r6wood-s)"/><path d="M550.6,354.62 L615.4,367.58 L621.35,363.48" fill="none" stroke="#e2bd85" stroke-width="1.1" stroke-linejoin="round" opacity="0.3"/><polygon points="533.8,349.89 559.99,355.13 572.83,346.27 546.64,341.03" fill="url(#r6cartonB-t)"/><polygon points="533.8,369.87 559.99,375.11 559.99,355.13 533.8,349.89" fill="url(#r6cartonB-f)"/><polygon points="559.99,375.11 572.83,366.25 572.83,346.27 559.99,355.13" fill="url(#r6cartonB-s)"/><path d="M533.8,349.89 L559.99,355.13 L572.83,346.27" fill="none" stroke="#e8c79a" stroke-width="1.1" stroke-linejoin="round" opacity="0.32"/><polygon points="562.43,355.51 588.62,360.75 601.46,351.9 575.27,346.66" fill="url(#r6cartonB-t)"/><polygon points="562.43,375.49 588.62,380.73 588.62,360.75 562.43,355.51" fill="url(#r6cartonB-f)"/><polygon points="588.62,380.73 601.46,371.88 601.46,351.9 588.62,360.75" fill="url(#r6cartonB-s)"/><path d="M562.43,355.51 L588.62,360.75 L601.46,351.9" fill="none" stroke="#e8c79a" stroke-width="1.1" stroke-linejoin="round" opacity="0.32"/><polygon points="550.29,339.62 576.48,344.85 589.32,336 563.13,330.76" fill="url(#r6carton-t)"/><polygon points="550.29,359.6 576.48,364.83 576.48,344.85 550.29,339.62" fill="url(#r6carton-f)"/><polygon points="576.48,364.83 589.32,355.98 589.32,336 576.48,344.85" fill="url(#r6carton-s)"/><path d="M550.29,339.62 L576.48,344.85 L589.32,336" fill="none" stroke="#e8c79a" stroke-width="1.1" stroke-linejoin="round" opacity="0.32"/><polygon points="576.94,344.77 603.13,350.01 615.97,341.15 589.78,335.92" fill="url(#r6carton-t)"/><polygon points="576.94,364.75 603.13,369.99 603.13,350.01 576.94,344.77" fill="url(#r6carton-f)"/><polygon points="603.13,369.99 615.97,361.13 615.97,341.15 603.13,350.01" fill="url(#r6carton-s)"/><path d="M576.94,344.77 L603.13,350.01 L615.97,341.15" fill="none" stroke="#e8c79a" stroke-width="1.1" stroke-linejoin="round" opacity="0.32"/><polygon points="535,327.63 561.19,332.87 574.03,324.01 547.84,318.77" fill="url(#r6carton-t)"/><polygon points="535,347.61 561.19,352.85 561.19,332.87 535,327.63" fill="url(#r6carton-f)"/><polygon points="561.19,352.85 574.03,343.99 574.03,324.01 561.19,332.87" fill="url(#r6carton-s)"/><path d="M535,327.63 L561.19,332.87 L574.03,324.01" fill="none" stroke="#e8c79a" stroke-width="1.1" stroke-linejoin="round" opacity="0.32"/><polygon points="561.28,333.66 587.47,338.9 600.31,330.05 574.12,324.81" fill="url(#r6carton-t)"/><polygon points="561.28,353.64 587.47,358.88 587.47,338.9 561.28,333.66" fill="url(#r6carton-f)"/><polygon points="587.47,358.88 600.31,350.03 600.31,330.05 587.47,338.9" fill="url(#r6carton-s)"/><path d="M561.28,333.66 L587.47,338.9 L600.31,330.05" fill="none" stroke="#e8c79a" stroke-width="1.1" stroke-linejoin="round" opacity="0.32"/><polygon points="548.6,318.06 574.79,323.3 587.63,314.45 561.44,309.21" fill="url(#r6cartonB-t)"/><polygon points="548.6,338.04 574.79,343.28 574.79,323.3 548.6,318.06" fill="url(#r6cartonB-f)"/><polygon points="574.79,343.28 587.63,334.43 587.63,314.45 574.79,323.3" fill="url(#r6cartonB-s)"/><path d="M548.6,318.06 L574.79,323.3 L587.63,314.45" fill="none" stroke="#e8c79a" stroke-width="1.1" stroke-linejoin="round" opacity="0.32"/><polygon points="575.64,323.78 601.83,329.01 614.67,320.16 588.48,314.92" fill="url(#r6carton-t)"/><polygon points="575.64,343.76 601.83,348.99 601.83,329.01 575.64,323.78" fill="url(#r6carton-f)"/><polygon points="601.83,348.99 614.67,340.14 614.67,320.16 601.83,329.01" fill="url(#r6carton-s)"/><path d="M575.64,323.78 L601.83,329.01 L614.67,320.16" fill="none" stroke="#e8c79a" stroke-width="1.1" stroke-linejoin="round" opacity="0.32"/><polygon points="645.33,382.48 653.97,384.21 680.91,365.64 672.27,363.91" fill="url(#r6wood-t)"/><polygon points="645.33,387.88 653.97,389.61 653.97,384.21 645.33,382.48" fill="url(#r6wood-f)"/><polygon points="653.97,389.61 680.91,371.04 680.91,365.64 653.97,384.21" fill="url(#r6wood-s)"/><polygon points="673.41,388.1 682.05,389.83 708.99,371.25 700.35,369.52" fill="url(#r6wood-t)"/><polygon points="673.41,393.5 682.05,395.23 682.05,389.83 673.41,388.1" fill="url(#r6wood-f)"/><polygon points="682.05,395.23 708.99,376.65 708.99,371.25 682.05,389.83" fill="url(#r6wood-s)"/><polygon points="701.49,393.72 710.13,395.44 737.07,376.87 728.43,375.14" fill="url(#r6wood-t)"/><polygon points="701.49,399.12 710.13,400.84 710.13,395.44 701.49,393.72" fill="url(#r6wood-f)"/><polygon points="710.13,400.84 737.07,382.27 737.07,376.87 710.13,395.44" fill="url(#r6wood-s)"/><polygon points="641.38,380.38 706.18,393.34 736.25,372.6 671.45,359.64" fill="url(#r6wood-t)"/><polygon points="641.38,382.81 706.18,395.77 706.18,393.34 641.38,380.38" fill="url(#r6wood-f)"/><polygon points="706.18,395.77 736.25,375.03 736.25,372.6 706.18,393.34" fill="url(#r6wood-s)"/><polygon points="641.38,378.49 706.18,391.45 712.13,387.34 647.33,374.38" fill="url(#r6wood-t)"/><polygon points="641.38,380.38 706.18,393.34 706.18,391.45 641.38,378.49" fill="url(#r6wood-f)"/><polygon points="706.18,393.34 712.13,389.23 712.13,387.34 706.18,391.45" fill="url(#r6wood-s)"/><path d="M641.38,378.49 L706.18,391.45 L712.13,387.34" fill="none" stroke="#e2bd85" stroke-width="1.1" stroke-linejoin="round" opacity="0.3"/><polygon points="648.74,373.41 713.54,386.37 719.49,382.27 654.69,369.31" fill="url(#r6wood-t)"/><polygon points="648.74,375.3 713.54,388.26 713.54,386.37 648.74,373.41" fill="url(#r6wood-f)"/><polygon points="713.54,388.26 719.49,384.16 719.49,382.27 713.54,386.37" fill="url(#r6wood-s)"/><path d="M648.74,373.41 L713.54,386.37 L719.49,382.27" fill="none" stroke="#e2bd85" stroke-width="1.1" stroke-linejoin="round" opacity="0.3"/><polygon points="656.1,368.34 720.9,381.3 726.85,377.19 662.05,364.23" fill="url(#r6wood-t)"/><polygon points="656.1,370.23 720.9,383.19 720.9,381.3 656.1,368.34" fill="url(#r6wood-f)"/><polygon points="720.9,383.19 726.85,379.08 726.85,377.19 720.9,381.3" fill="url(#r6wood-s)"/><path d="M656.1,368.34 L720.9,381.3 L726.85,377.19" fill="none" stroke="#e2bd85" stroke-width="1.1" stroke-linejoin="round" opacity="0.3"/><polygon points="663.46,363.26 728.26,376.22 734.21,372.12 669.41,359.16" fill="url(#r6wood-t)"/><polygon points="663.46,365.15 728.26,378.11 728.26,376.22 663.46,363.26" fill="url(#r6wood-f)"/><polygon points="728.26,378.11 734.21,374.01 734.21,372.12 728.26,376.22" fill="url(#r6wood-s)"/><path d="M663.46,363.26 L728.26,376.22 L734.21,372.12" fill="none" stroke="#e2bd85" stroke-width="1.1" stroke-linejoin="round" opacity="0.3"/><polygon points="646.14,359.55 672.33,364.78 685.17,355.93 658.98,350.69" fill="url(#r6carton-t)"/><polygon points="646.14,378.18 672.33,383.41 672.33,364.78 646.14,359.55" fill="url(#r6carton-f)"/><polygon points="672.33,383.41 685.17,374.56 685.17,355.93 672.33,364.78" fill="url(#r6carton-s)"/><path d="M646.14,359.55 L672.33,364.78 L685.17,355.93" fill="none" stroke="#e8c79a" stroke-width="1.1" stroke-linejoin="round" opacity="0.32"/><polygon points="675.09,364.49 701.28,369.73 714.13,360.87 687.94,355.63" fill="url(#r6carton-t)"/><polygon points="675.09,383.12 701.28,388.36 701.28,369.73 675.09,364.49" fill="url(#r6carton-f)"/><polygon points="701.28,388.36 714.13,379.5 714.13,360.87 701.28,369.73" fill="url(#r6carton-s)"/><path d="M675.09,364.49 L701.28,369.73 L714.13,360.87" fill="none" stroke="#e8c79a" stroke-width="1.1" stroke-linejoin="round" opacity="0.32"/><polygon points="661.77,349.58 687.96,354.82 700.8,345.96 674.61,340.72" fill="url(#r6carton-t)"/><polygon points="661.77,368.21 687.96,373.45 687.96,354.82 661.77,349.58" fill="url(#r6carton-f)"/><polygon points="687.96,373.45 700.8,364.59 700.8,345.96 687.96,354.82" fill="url(#r6carton-s)"/><path d="M661.77,349.58 L687.96,354.82 L700.8,345.96" fill="none" stroke="#e8c79a" stroke-width="1.1" stroke-linejoin="round" opacity="0.32"/><polygon points="689.52,355.14 715.71,360.38 728.56,351.52 702.37,346.28" fill="url(#r6carton-t)"/><polygon points="689.52,373.77 715.71,379.01 715.71,360.38 689.52,355.14" fill="url(#r6carton-f)"/><polygon points="715.71,379.01 728.56,370.15 728.56,351.52 715.71,360.38" fill="url(#r6carton-s)"/><path d="M689.52,355.14 L715.71,360.38 L728.56,351.52" fill="none" stroke="#e8c79a" stroke-width="1.1" stroke-linejoin="round" opacity="0.32"/><polygon points="648.06,339.35 674.25,344.59 687.09,335.73 660.9,330.49" fill="url(#r6carton-t)"/><polygon points="648.06,357.98 674.25,363.22 674.25,344.59 648.06,339.35" fill="url(#r6carton-f)"/><polygon points="674.25,363.22 687.09,354.36 687.09,335.73 674.25,344.59" fill="url(#r6carton-s)"/><path d="M648.06,339.35 L674.25,344.59 L687.09,335.73" fill="none" stroke="#e8c79a" stroke-width="1.1" stroke-linejoin="round" opacity="0.32"/><polygon points="676.01,345 702.2,350.24 715.04,341.38 688.85,336.15" fill="url(#r6carton-t)"/><polygon points="676.01,363.63 702.2,368.87 702.2,350.24 676.01,345" fill="url(#r6carton-f)"/><polygon points="702.2,368.87 715.04,360.01 715.04,341.38 702.2,350.24" fill="url(#r6carton-s)"/><path d="M676.01,345 L702.2,350.24 L715.04,341.38" fill="none" stroke="#e8c79a" stroke-width="1.1" stroke-linejoin="round" opacity="0.32"/><polygon points="661.24,329.28 687.43,334.52 700.27,325.67 674.08,320.43" fill="url(#r6carton-t)"/><polygon points="661.24,347.91 687.43,353.15 687.43,334.52 661.24,329.28" fill="url(#r6carton-f)"/><polygon points="687.43,353.15 700.27,344.3 700.27,325.67 687.43,334.52" fill="url(#r6carton-s)"/><path d="M661.24,329.28 L687.43,334.52 L700.27,325.67" fill="none" stroke="#e8c79a" stroke-width="1.1" stroke-linejoin="round" opacity="0.32"/><polygon points="690.6,335.76 716.79,341 729.63,332.14 703.44,326.91" fill="url(#r6cartonB-t)"/><polygon points="690.6,354.39 716.79,359.63 716.79,341 690.6,335.76" fill="url(#r6cartonB-f)"/><polygon points="716.79,359.63 729.63,350.77 729.63,332.14 716.79,341" fill="url(#r6cartonB-s)"/><path d="M690.6,335.76 L716.79,341 L729.63,332.14" fill="none" stroke="#e8c79a" stroke-width="1.1" stroke-linejoin="round" opacity="0.32"/><polygon points="645.02,337.88 702.8,349.44 731.61,329.56 673.83,318.01" fill="url(#r6wrap-t)"/><polygon points="645.02,379.46 702.8,391.02 702.8,349.44 645.02,337.88" fill="url(#r6wrap-f)"/><polygon points="702.8,391.02 731.61,371.14 731.61,329.56 702.8,349.44" fill="url(#r6wrap-s)"/><path d="M645.02,337.88 L702.8,349.44 L731.61,329.56" fill="none" stroke="#ffffff" stroke-width="1.1" stroke-linejoin="round" opacity="0.45"/><path d="M649.56,365.39 L697.62,375.01" stroke="#ffffff" stroke-width="1.6" opacity="0.3" fill="none"/><path d="M649.56,354.46 L697.62,364.07" stroke="#ffffff" stroke-width="1.1" opacity="0.2" fill="none"/></svg>